<?xml version="1.0" encoding="utf-8"?>
<!-- Generator: Adobe Illustrator 23.0.3, SVG Export Plug-In . SVG Version: 6.00 Build 0)  -->
<svg version="1.1" id="Capa_1" xmlns="http://www.w3.org/2000/svg" xmlns:xlink="http://www.w3.org/1999/xlink" x="0px" y="0px"
	 viewBox="0 0 1200 1200" enable-background="new 0 0 1200 1200" xml:space="preserve">
<g>
	<path fill="#E4F170" d="M455.351,301.352c0.864,0.715,1.695,1.002,2.565,1.002c0.837,0,1.709-0.265,2.679-0.675
		c19.1-8.048,39.371-12.112,61.974-12.425c2.155-0.029,3.427-0.877,4.893-2.335c11.393-11.314,21.828-24.69,31.014-39.764
		c11.101-18.228,16.596-34.323,17.287-50.65c0.11-5.974-0.56-10.446-2.171-14.502c-5.991-15.079-17.82-22.672-35.173-22.672
		c-0.967,0-1.951,0.024-2.953,0.071c-12.26,0.596-30.552,15.222-34.339,27.456c-4.466,14.429-7.197,25.697-8.853,36.533
		c-0.499,3.272-1.063,6.535-1.627,9.798c-1.656,9.581-3.367,19.486-3.318,29.394c0.003,0.671,0.101,1.47,0.197,2.291
		c0.32,2.742,0.758,6.497-2.358,6.951c-0.258,0.039-0.511,0.057-0.756,0.057c-3.636,0-5.77-4.09-7.348-7.118l-0.213-0.405
		c-0.445-0.853-0.784-1.762-1.118-2.67c-0.137-0.376-0.275-0.752-0.422-1.122c-5.654-14.154-7.974-27.45-7.092-40.644
		c0.158-2.346-0.532-4.305-2.168-6.167c-5.897-6.708-11.419-12.494-19.32-15.335c-3.899-1.403-8.1-2.268-12.173-2.268
		c-8.278,0-16.03,3.57-19.683,13.446c-4.419,11.953-2.262,23.481,0.432,33.18C421.478,264.998,434.576,284.157,455.351,301.352z
		 M521.133,261.821c7.906-21.274,8.337-42.73,1.321-65.591c-1.452-4.727,0.31-6.659,3.622-8.244l0.752-0.359
		c6.915-3.309,14.066-6.729,22.298-6.992c0.092-0.001,0.182-0.003,0.271-0.003c3.342,0,4.911,1.384,5.234,4.695
		c1.03,10.51-0.204,21.404-3.882,34.288c-5.263,18.436-13.926,32.368-27.26,43.843c-0.276,0.237-0.621,0.359-0.966,0.359
		c-0.295,0-0.59-0.087-0.846-0.266C521.122,263.167,520.898,262.455,521.133,261.821z"/>
	<path fill="#F4414A" d="M203.736,593.176c-0.746,0-1.596-0.14-2.565-0.47c-1.203-0.411-2.402-0.607-3.568-0.607
		c-1.819,0-3.552,0.484-5.079,1.404c-1.681,1.545-2.762,3.831-3.223,7.683c-1.467,12.235-0.95,17.629,5.478,32.264
		c1.086,2.472,1.552,5.1,1.471,7.698c5.252,1.409,10.6,2.805,16.086,4.186c21.76,5.472,44.974,9.962,68.997,13.343
		c14.599,2.055,30.578,3.904,48.713,5.634c1.143-2.648,2.935-5.031,5.294-6.896c0.494-0.391,0.959-0.79,1.441-1.185
		c3.902-7.111,8.204-13.971,12.45-20.655c4.148-6.532,8.437-13.287,12.221-20.151c4.837-8.774,10.21-20.559,8.809-33.912
		c-0.237-2.265-0.542-2.997-2.1-3.471c-0.597-0.182-1.193-0.376-1.791-0.57c-2.249-0.733-4.417-1.437-6.581-1.437
		c-1.095,0-2.188,0.18-3.292,0.627c-1.016,0.411-1.977,0.583-2.886,0.583c-2.282,0-4.245-1.081-5.975-2.174
		c-7.119-4.49-10.368-13.469-7.897-21.835c2.061-6.983,4.192-14.204,3.887-21.818c-0.001-0.014-0.001-0.026-0.001-0.038
		c-0.029-1.782-0.255-3.628-0.473-5.412c-0.194-1.594-0.386-3.173-0.456-4.733c-0.105-2.364-0.575-4.602-1.318-6.708
		c-2.135-4.351-3.32-6.41-5.265-8.273c-0.044-0.043-0.091-0.085-0.136-0.129c-1.029-0.964-2.29-1.903-3.999-3.095
		c-1.727-1.072-3.575-1.921-5.501-2.557c-1.604,0.225-3.046,0.285-4.255,0.285c-0.322,0-0.65-0.004-1.124-0.016
		c-0.366-0.012-0.73-0.017-1.093-0.017c-6.573,0-16.592,1.656-27.671,15.981c-2.175,2.81-7.035,9.073-14.88,12.105
		c-1.9,2.83-4.234,4.246-7.058,4.246c-1.38,0-2.875-0.335-4.493-1.003c-5.152-2.129-10.715-3.318-16.096-4.472
		c-2.58-0.552-5.159-1.105-7.714-1.756c-1.504-0.382-3.091-0.563-4.717-0.563c-11.348,0-24.744,8.772-27.349,18.975
		c-2.33,9.124-2.047,16.741,0.891,23.961c2.891,7.102,2.23,14.076-2.021,21.323C208.1,590.878,206.758,593.176,203.736,593.176z
		 M235.875,584.109c0.769-8.253,4.555-15.208,10.657-19.581c3.852-2.763,8.035-4.144,12.425-4.144c4.422,0,9.056,1.402,13.778,4.205
		c0.856,0.507,1.363,0.759,1.887,0.759c0.513,0,1.044-0.242,1.937-0.725c4.151-2.234,8.401-3.349,12.566-3.349
		c4.576,0,9.052,1.346,13.185,4.032c7.692,4.999,11.171,15.176,8.862,25.925c-2.478,11.542-8.035,20.617-16.989,27.751l-0.509,0.428
		c-0.767,0.657-1.979,1.698-3.473,1.698c-0.72,0-1.506-0.243-2.339-0.885c-2.172-1.669-1.688-3.801-1.297-5.511l0.119-0.529
		c2.164-10.029,3.808-18.91,5.026-27.158c0.331-2.239,0.052-3.842-0.788-4.507c-0.392-0.31-0.948-0.464-1.643-0.464
		c-0.907,0-2.05,0.263-3.372,0.785c-2.799,1.105-5.112,2.919-7.559,4.837l-0.644,0.506c-1.376,1.075-3.357,2.407-5.461,2.407
		c-0.325,0-0.652-0.032-0.981-0.101c-1.802-0.388-3.273-1.77-4.63-4.351c-3.234-6.15-5.099-8.04-7.982-8.04
		c-0.853,0-1.796,0.166-2.889,0.435c-5.119,1.258-7.299,5.071-7.29,12.749c0,0.075-0.006,0.148-0.016,0.223
		c-0.589,3.928,1.305,7.741,3.233,10.952c2.685,4.472,0.687,7.041-1.462,8.412c-0.911,0.578-1.715,0.806-2.419,0.806
		c-1.869,0-3.043-1.6-3.702-2.498c-0.221-0.301-0.434-0.599-0.667-0.842C238.001,602.646,235.033,593.137,235.875,584.109z
		 M812.065,412.764c-1.219-0.342-10.041-3.683-10.841-2.421c-6.667,10.559-5.341,22.918-2.558,40.034
		c0.514,3.165,0.127,6.327-0.978,9.208c2.554,4.076,6.436,7.088,12.554,9.198c11.022,3.804,22.76,7.094,35.343,7.094
		c5.188,0,10.519-0.559,16.003-1.872c19.777-4.736,36.64-14.785,53.602-25.543c26.29-16.677,54.573-33.854,85.853-44.555
		c4.508-1.542,6.149-3.755,6.267-8.456c0.033-1.299,0.025-2.598,0.016-3.897l-0.009-1.82c0-0.046,0.001-0.093,0.006-0.139
		c1.095-11.704-8.23-26.533-19.188-30.51c-6.468-2.346-13.395-3.648-21.177-3.975c-2.841-0.119-4.436-1.198-5.505-3.732
		c-4.798-11.36-12.806-19.2-24.48-23.964c-7.894-3.223-15.404-4.825-22.435-4.826c-13.537-0.001-25.313,5.936-34.724,17.679
		c-1.68,2.097-3.279,3.105-5.194,3.105c-1.219,0-2.567-0.409-4.145-1.204c-5.488-2.762-10.612-5.062-15.823-5.062
		c-2.047,0-4.109,0.355-6.212,1.177c-12.445,4.86-20.504,14.693-23.955,29.229c-2.356,9.927-1.128,21.674,0.849,31.607
		C826.892,406.95,820.39,415.104,812.065,412.764z M850.198,391.538c3.894-7.124,11.837-11.499,19.935-11.499
		c1.965,0,3.939,0.257,5.866,0.796c0.882,0.247,1.544,0.382,2.07,0.382c1.232,0,1.719-0.737,2.545-2.496
		c3.988-8.508,10.245-14.123,18.598-16.686c2.732-0.839,5.398-1.255,7.93-1.255c4.118,0,7.883,1.1,11.003,3.269
		c5.323,3.697,8.525,10.342,9.017,18.711c0.032,0.529,0.026,1.062,0.017,1.733l-0.007,0.984c0.464,2.418-0.153,4.79-0.752,7.084
		c-0.341,1.313-0.694,2.67-0.826,3.989c-0.234,2.354-1.498,4.664-3.85,4.664c-0.049,0-0.1-0.001-0.151-0.004
		c-1.805-0.081-3.483-2.022-4.169-3.309c-2.015-3.778-3.946-7.761-5.736-11.834c-1.312-2.985-2.437-4.582-3.437-4.883
		c-0.132-0.039-0.276-0.057-0.427-0.057c-1.205-0.001-3.019,1.169-5.43,2.727l-0.579,0.373c-3.781,2.439-5.401,6.477-7.115,10.753
		c-0.317,0.793-0.634,1.579-0.963,2.358l-0.861,1.993c-0.458,1.056-0.917,2.109-1.349,3.173c-0.827,2.028-1.997,3.301-3.479,3.778
		c-0.439,0.141-0.896,0.212-1.372,0.212c-1.232,0-2.593-0.474-4.124-1.433c-0.735-0.463-1.458-0.943-2.181-1.426
		c-2.405-1.6-4.676-3.113-7.342-3.859c-0.96-0.27-1.908-0.402-2.821-0.402c-2.173,0-4.156,0.75-5.665,2.19
		c-2.159,2.057-2.962,5.138-2.204,8.45c1.941,8.485,4.545,15.089,10.948,19.749c3.842,2.797,1.588,6.729,0.505,8.621
		c-1.107,1.927-2.524,2.499-3.847,2.499c-1.412,0-2.716-0.654-3.419-1.004c-11.324-5.687-15.064-16.59-18.365-26.212
		C845.623,406.274,846.328,398.622,850.198,391.538z"/>
	<path fill="#5B8AA4" d="M1102.395,699.992c-0.447-0.33-1.32-0.077-1.776,0.093c-5.609,2.094-11.389,4.156-17.813,6.355
		c-30.481,10.449-64.021,19.185-105.55,27.493c-14.798,2.962-29.969,5.256-44.64,7.475c-4.384,0.662-8.767,1.325-13.145,2.005
		c-10.319,1.605-21.629,3.182-35.594,4.958c-12.038,1.53-24.486,3.116-36.941,4.244c-7.553,0.683-15.244,1.203-22.682,1.704
		c-4.647,0.315-9.293,0.628-13.93,0.984c-6.809,0.519-13.851,0.779-21.325,0.779c-8.43,0-17.462-0.351-27.284-1.015
		c-16.785,1.002-33.57,1.281-50.356,1.352l-0.046,0.66c-0.051,0.726-0.619,1.308-1.342,1.374
		c-36.616,3.379-73.356,5.068-109.96,5.068c-36.775,0-73.411-1.704-109.658-5.114c-0.715-0.067-1.263-0.641-1.326-1.348
		c-16.483,0.281-32.788,0.223-49.567-1.466c-118.123-0.357-233.185-19.057-342.195-55.658c3.483,7.29,6.584,14.733,9.597,21.959
		c4.349,10.437,8.848,21.227,14.403,31.286c25.189,45.602,53.675,83.139,87.084,114.758l2.084,1.987
		c4.976,4.756,10.12,9.676,16.216,12.954c25.539,13.732,53.832,26.108,86.499,37.829c26.625,9.558,55.203,17.878,89.936,26.183
		l2.514,0.602c27.848,6.666,56.609,13.542,85.916,13.542c1.255,0,2.511-0.012,3.769-0.038c0.061,0,0.126-0.001,0.194-0.001
		c0.685,0,1.681,0.047,2.434,0.837c0.573,0.602,0.827,1.467,0.754,2.575c-0.045,0.66-0.521,1.212-1.167,1.351
		c-5.638,1.21-11.466,2.415-17.557,2.725c25.124,3.535,50.39,5.956,75.718,7.222c-0.619-0.364-1.177-0.788-1.615-1.323
		c-1.24-1.516-1.702-3.636-1.415-6.489c0.487-4.837,3.35-7.77,7.851-8.048c5.386-0.337,10.638-0.505,15.793-0.505
		c8.285,0,16.326,0.435,24.299,1.301l14.779,1.617c7.126,0.781,14.257,1.565,21.381,2.329c1.326,0.142,2.667,0.237,4.021,0.333
		c4.746,0.339,9.653,0.686,14.765,2.982c0.483,0.217,0.813,0.674,0.868,1.201c0.054,0.524-0.176,1.039-0.605,1.348
		c-4.691,3.402-9.692,4.041-14.105,4.605l-1.118,0.145c-1.834,0.242-3.68,0.445-5.528,0.638c26.421-1.251,52.797-3.797,79.031-7.718
		c-3.926-0.386-8.075-1.199-12.405-3.201c-0.496-0.231-0.826-0.714-0.856-1.261c-0.032-0.547,0.242-1.067,0.71-1.351
		c1.937-1.174,3.66-1.428,5.159-1.428c0.605,0,1.172,0.041,1.702,0.08l0.616,0.043c1.805,0.103,3.607,0.15,5.402,0.15
		c11.605,0,22.977-1.989,34.024-3.926c38.004-6.671,74.832-16.81,102.671-24.898c32.188-9.347,64.372-21.441,95.656-35.949
		c2.119-0.984,4.257-1.941,6.399-2.901c9.74-4.365,19.813-8.878,28.076-15.884c19.814-16.793,38.765-36.99,56.329-60.026
		c27.739-36.391,49.477-75.285,64.609-115.605C1102.364,701.392,1103.06,700.481,1102.395,699.992z M688.77,821.229
		c-30.939,12.106-63.205,17.16-96.297,21.673c-21.379,2.919-43.216,3.604-64.332,4.264c-7.824,0.246-15.828,0.498-23.825,0.862
		c62.299,13.185,114.256,20.872,162.713,24.106c0.754,0.052,1.349,0.66,1.381,1.415s-0.508,1.412-1.255,1.527
		c-29.125,4.472-59.564,6.686-92.22,6.686c-12.895,0-26.134-0.346-39.775-1.033c-39.828-2.008-81.713-7.866-127.915-17.901
		c1.053,0.822,2.155,1.279,3.293,1.747l0.424,0.177c23.814,9.957,49.837,18.893,79.556,27.317
		c20.676,5.864,41.173,10.683,60.925,14.319c2.141,0.396,4.283,0.804,6.429,1.215c10.233,1.953,20.815,3.975,31.488,4.348
		c0.709,0.026,1.3,0.55,1.412,1.25c0.11,0.703-0.292,1.383-0.959,1.623c-7.152,2.595-15.514,5.427-24.237,6.248
		c-11.334,1.065-22.682,1.386-34.132,1.386c-6.765,0-13.563-0.113-20.417-0.249c-13.452-0.266-26.621-0.625-39.837-2.063
		c-26.699-2.901-49.143-5.546-71.899-9.031c-15.99-2.45-31.977-5.942-47.438-9.321l-8.145-1.773
		c-10.128-2.19-19.894-5.997-29.339-9.679l-2.738-1.067c-21.149-8.21-39.967-19.998-55.931-35.041
		c-12.987-12.242-24.233-26.958-35.391-46.311c-6.231-10.81-10.575-21.3-13.282-32.07c-0.567-2.262-0.823-4.614-0.78-7.192
		c0.062-3.677,0.814-5.861,2.443-7.082c0.994-0.748,2.211-1.013,3.475-1.013c1.397,0,2.853,0.323,4.135,0.674
		c26.711,7.301,51.777,13.541,76.63,19.078c21.78,4.851,39.841,8.548,56.839,11.635c15.45,2.809,29.081,4.99,41.671,6.662
		c7.079,0.943,14.153,1.921,21.227,2.901c10.311,1.432,20.626,2.861,30.96,4.166c23.273,2.936,42.858,5.161,62.801,6.471
		c5.561,0.365,11.166,1.067,16.587,1.747c7.612,0.954,15.569,1.988,23.265,1.988c0.265,0,0.529-0.001,0.794-0.004
		c0.105,0,0.21,0,0.315,0c11.23,0,22.563,0.762,33.532,1.516c7.229,0.498,14.704,1.01,22.055,1.287
		c8.584,0.326,17.26,0.431,25.896,0.431c7.748,0,15.465-0.085,23.059-0.168l4.999-0.052c5.401-0.055,10.912-0.437,16.24-0.807
		c3.11-0.214,6.218-0.428,9.329-0.584c0.248-0.012,0.497-0.019,0.746-0.019c1.765,0,3.558,0.315,5.459,0.956
		c0.589,0.2,0.991,0.746,1.005,1.368S689.35,821,688.77,821.229z M1022.106,761.342c-3.421,5.89-6.742,11.791-10.044,17.658
		c-5.909,10.501-11.691,20.718-17.818,30.577c-5.269,10.047-12.1,19.646-20.663,29.1c-1.407,1.698-2.802,3.403-4.277,5.064
		c-13.155,14.811-30.427,25.859-56.002,35.819c-24.359,9.486-50.154,15.011-75.1,20.351l-7.458,1.603
		c-25.95,5.598-47.023,9.899-66.316,13.53c-10.064,1.895-20.271,2.829-30.713,3.694c-0.712,0.058-1.478,0.307-2.291,0.567
		c-1.109,0.353-2.376,0.761-3.79,0.761c-1.02,0-2.115-0.211-3.282-0.807c-0.454-0.229-0.758-0.677-0.804-1.183
		c-0.046-0.509,0.171-1.004,0.576-1.313c5.272-4.03,11.062-6.214,16.663-8.323c24.732-9.318,49.502-18.534,74.271-27.751
		c12.811-4.767,25.622-9.535,38.428-14.317l1.305-0.486c17.786-6.639,36.177-13.504,52.723-23.568
		c9.958-6.06,17.475-13.405,22.979-22.457c0.162-0.266,0.346-0.532,0.529-0.798c0.82-1.183,0.984-1.565,0.571-2.32
		c-0.272-0.498-0.499-0.646-1.116-0.646c-0.227,0-0.506,0.02-0.86,0.051c-0.369,0.036-0.733,0.069-1.093,0.069
		c-0.1,0-0.2-0.002-0.299-0.008c-0.36-0.016-0.72-0.024-1.079-0.024c-2.231,0-4.445,0.289-6.772,0.605
		c-2.24,0.304-4.556,0.619-6.925,0.642c-1.065,0.009-2.138,0.014-3.207,0.014c-35.812,0-74.083-5.355-116.84-16.434
		c-0.658-0.171-2.666-0.689-3.098-3.092c-0.075-0.422,0.035-0.853,0.301-1.189c0.266-0.333,0.664-0.535,1.091-0.553
		c34.511-1.556,71.214-5.308,115.507-11.817c9.359-1.375,18.714-2.93,28.1-4.667c19.605-4.403,42.532-8.846,59.543-13.408
		c8.44-2.222,16.945-4.572,25.563-7.107c0.138-0.04,0.278-0.059,0.417-0.059c0.448,0,0.882,0.201,1.167,0.566
		C1022.365,760.162,1022.411,760.819,1022.106,761.342z"/>
	<path fill="#FFDF84" d="M570.419,458.14c1.72,5.708,3.134,12.205,4.597,20.985c-1.384-0.496-2.768-0.986-4.142-1.446
		c-20.036-7.269-41.758-10.85-65.811-10.85c-9.655-0.001-19.942,0.581-30.575,1.728c-4.673,0.506-9.404,1.144-14.182,1.913
		c5.976-8.615,14.172-16.874,25.098-25.266c6.346-4.875,12.452-8.684,18.53-11.57c7.7-3.042,16.431-5.352,26.049-5.438
		c0.172-0.003,0.341-0.003,0.513-0.003c16.525,0,28.257,7.174,35.849,21.919C567.723,452.784,569.073,455.458,570.419,458.14z
		 M77.717,596.614c-1.305-31.482,3.902-62.487,15.922-94.786c11.846-31.835,26.426-55.07,45.881-73.124
		c10.252-9.514,19.759-17.58,32.313-19.902c4.876-0.903,9.789-1.351,14.732-1.351c5.936,0,11.91,0.672,17.898,1.972
		c7.432,8.203,21.448,8.041,31.511,10.336c7.246,1.652,14.479,3.363,21.695,5.146c3.448,0.852,18.703,7.097,21.439,5.53
		c-3.202,1.834-6.569,3.355-9.935,4.862c-2.152,0.964-4.447,1.568-6.552,2.57c-2.253,1.072-3.384,2.811-2.563,5.286
		c2.06,6.214,10.23,3.319,14.533,1.916c7.219-2.356,14.049-5.729,20.778-9.214c1.916-0.992,3.816-2.04,5.72-3.071
		c5.686-0.175,11.105-2.061,16.535-5.794c16.749-11.52,33.468-24.745,52.618-41.622c0.694-0.611,1.317-1.277,1.897-1.974
		c25.089-20.975,48.436-39.446,75.818-53.063c19.524-9.711,37.797-15.693,55.864-18.294c7.21-1.041,14.127-1.562,20.777-1.562
		c24.666,0.001,45.585,7.186,63.514,21.728c24.475,19.844,41.157,42.646,51,69.666c1.689,6.928,2.982,14.046,3.837,21.268
		c0.506,4.285,1.005,8.45,2.317,12.223c-5.545,2.165-11.097,4.676-16.668,7.501c-1.151-2.28-2.302-4.56-3.453-6.853l-0.305-0.608
		c-1.182-2.354-2.404-4.753-3.607-7.135c-5.078-16.064-11.821-29.038-20.751-40.042c-19.133-23.576-41.572-36.001-68.603-37.977
		c-3.089-0.225-6.159-0.338-9.223-0.338c-28.187,0-55.314,9.563-82.654,29.098c-3.508,2.507-6.904,5.153-10.252,7.853
		c-11.282,8.413-21.635,17.606-31.433,26.839c-2.925,2.756-5.838,5.524-8.751,8.292c-18.643,17.713-37.895,36.005-59.427,49.88
		c-3.56,2.293-6.108,5.757-7.328,9.702c-1.582-0.168-3.176-0.281-4.786-0.281c-5.241,0-10.342,0.908-15.161,2.698
		c-15.44,5.748-27.623,15.354-36.356,28.569c-2.031-0.392-4.297-1.421-7.029-3.077c-6.717-4.07-14.949-6.143-23.351-6.143
		c-6.521,0-13.145,1.25-19.238,3.782c-13.627,5.667-23.168,17.192-26.864,32.449c-2.739,11.311-2.19,22.625,1.688,34.537
		c-3.499,1.133-6.498,2.719-9.104,4.654c-3.779,2.447-7.012,5.823-9.384,9.998c-4.435,7.815-6.455,16.805-5.689,25.321
		c0.524,5.838,1.437,12.707,3.437,19.91c-30.421-9.109-57.029-18.98-81.767-30.286c-3.51-1.602-6.841-2.379-10.194-2.38
		c-0.392,0-0.797,0.013-1.21,0.035c-0.056-0.795-0.066-1.658-0.061-2.611C77.743,598.026,77.746,597.309,77.717,596.614z
		 M290.455,468.755c0.003,1.128,0.142,2.745,1.316,3.795c0.835,0.746,1.889,0.931,2.819,0.931c0.356,0,0.694-0.029,0.994-0.061
		c0.017-0.003,0.033-0.006,0.051-0.006c5.115-0.746,9.674-2.98,14.081-5.141l2.11-1.027c22.032-10.573,38.581-23.458,50.592-39.386
		c0.159-0.211,0.392-0.428,0.634-0.662c0.939-0.914,3.139-3.058,1.072-5.438c-0.751-0.867-1.575-1.169-2.371-1.169
		c-1.286,0-2.501,0.789-3.229,1.262c-0.285,0.185-0.558,0.367-0.816,0.498c-20.647,10.449-41.627,22.873-62.36,36.927
		C292.093,461.486,290.447,464.674,290.455,468.755z M201.387,447.924c-17.798,7.09-33.039,19.743-47.96,39.828
		c-13.386,18.016-21.599,38.602-24.409,61.177c-1.828,14.672-1.835,27.892-0.023,40.415c1.691,11.687,4.893,20.49,10.384,28.537
		c0.281,0.411,0.742,0.645,1.224,0.645c0.122,0,0.244-0.014,0.366-0.046c0.603-0.153,1.046-0.668,1.108-1.287
		c0.505-5.071-0.285-9.621-1.05-14.021c-0.5-2.887-0.973-5.612-1.072-8.378c-0.568-16.263,1.705-33.64,7.154-54.68
		c10.771-41.578,32.971-68.476,67.871-82.231c1.497-0.593,2.78-1.53,4.199-2.569c2.387-1.744,3.327-4.157,2.577-6.625
		c-0.953-3.136-4.099-3.477-5.793-3.662c-0.723-0.079-1.437-0.116-2.143-0.116C209.354,444.913,205.245,446.39,201.387,447.924z
		 M118.384,510.163c0.146,0.634,0.688,1.096,1.336,1.146c0.036,0.003,0.072,0.003,0.107,0.003c0.606,0,1.156-0.37,1.38-0.943
		c9.646-24.676,28.125-41.94,44.93-55.577c3.531-2.864,7.22-5.655,10.789-8.354c3.33-2.52,6.658-5.036,9.914-7.651
		c2.424-1.947,3.526-3.926,3.275-5.878c-0.263-2.048-1.992-3.801-5.136-5.207c-1.304-0.581-2.533-0.818-3.692-0.818
		c-2.972,0-5.483,1.561-7.616,2.889l-1.102,0.68c-20.676,12.361-36.889,30.609-49.565,55.779
		C119.389,493.402,116.329,501.268,118.384,510.163z M239.279,401.53c0.882-3.045,2.327-5.278,3.174-6.497
		c7.246-13.525,17.904-24.228,32.564-32.703c9.628-5.566,20.085-9.681,31.015-11.806c9.151-1.779,18.529-2.155,27.81-1.363
		c9.845,0.841,19.554,2.252,28.811,5.594c3.565,1.287,6.629,2.774,8.985,5.376c1.966-1.702,3.929-3.41,5.888-5.122
		c11.118-9.717,22.616-19.767,35.519-27.742c0.733-0.454,0.94-0.784,0.955-0.865c-0.001,0-0.09-0.472-1.501-1.362
		c-5.195-3.279-10.251-6.865-16.002-9.133c-36.53-14.409-80.527-15.797-115.784,2.826c-35.048,18.513-55.519,43.378-62.597,75.951
		c1.885,0.597,3.768,1.227,5.645,1.93C228.819,398.506,234.025,400.114,239.279,401.53z M786.873,397.502
		c-0.863-1.271-1.815-2.444-2.858-3.521c-5.054-3.08-10.339-5.983-16.354-7.291c-3.463-0.752-6.933-1.189-10.404-1.429
		c-10.69,0.179-21.86,2.233-32.697,4.246l-0.44,0.081c-3.441,0.636-6.885,1.273-10.337,1.861
		c-8.354,1.423-21.058,3.314-34.865,3.314c-8.277,0-16.253-0.707-23.849-2.048c0.359,1.313,0.736,2.616,1.067,3.943
		c0.023,0.064,0.049,0.127,0.072,0.192c2.595,7.272,6.021,14.765,9.349,22.04c1.073,2.345,2.143,4.686,3.188,7.015l0.2,0.445
		c0.242,0.535,0.477,1.065,0.703,1.603c10.557-2.305,21.158-3.459,31.895-3.459l0.994,0.004c15.484,0.114,29.402,4.482,41.864,9.988
		c5.275,2.14,10.72,4.618,16.45,7.55c5.138,2.632,10.071,5.423,15.263,8.367c-0.307-1.849-0.555-3.696-0.756-5.524
		c-1.089-9.909-0.08-18.659,1.246-28.256C777.997,406.554,782.764,400.737,786.873,397.502z M1067.083,611.794
		c0.245,0.813,0.47,1.594,0.674,2.317c0.236,0.837,0.467,1.678,0.734,2.491c0.435,1.321,0.859,2.653,1.252,3.994
		c9.148-3.327,18.196-6.795,27.101-10.437c6.715-2.749,13.399-5.72,19.881-8.837c0.122-0.059,0.241-0.097,0.363-0.154
		c0.429-0.2,0.147-2.732,0.139-3.105c-0.245-10.942-0.537-20.665-6.622-30.248c-10.68-16.82-30.44-23.189-49.527-23.189
		c-37.24,0-71.417,16.227-101.51,36.81c-4.445,3.04-8.855,6.318-13.119,9.486c-9.095,6.76-18.501,13.749-28.956,19
		c-17.063,8.571-33.468,12.856-49.462,12.856c-14.233,0-28.138-3.39-41.904-10.168l-3.573-1.759
		c-8.97-4.417-18.125-8.908-27.346-13.3c-7.761-3.296-15.419-6.237-23.223-8.681c-7.86-2.46-15.165-3.707-21.711-3.707
		c-9.858,0-18.211,2.722-26.129,8.464c0.793,0.645,1.589,1.286,2.381,1.932c3.843,3.133,7.818,6.373,11.803,9.439
		c20.954,16.132,42.774,30.641,65.126,43.398c7.522,3.458,15.611,6.801,24.54,10.139c3.473,1.299,6.287,3.627,8.295,6.503
		c1.448,0.336,2.884,0.525,4.333,0.525c0.714,0,1.431-0.04,2.155-0.12l4.153-0.437c4.948-0.512,10.064-1.039,14.969-2.016
		c11.993-2.393,23.428-6.165,34.478-11.226c1.563-1.772,3.459-3.285,5.714-4.346c12.037-5.666,23.5-13.918,34.583-21.898
		c1.645-1.185,3.318-2.377,4.984-3.568c17.431-13.724,34.246-24.13,51.196-31.664c10.353-4.599,21.53-8.682,33.908-8.683
		c2.851,0,5.763,0.216,8.746,0.693C1048.618,584.402,1066.757,593.929,1067.083,611.794z M489.503,685.25
		c0.065-0.671,0.577-1.215,1.244-1.319c13.104-2.055,26.434-0.333,39.587-1.801c-3.021-3.761-6.126-7.516-9.342-11.205
		c-7.073-5.242-14.312-10.653-21.118-16.408c-17.003-14.377-34.847-22.917-54.038-25.838c-2.902-0.301-5.852-0.474-8.798-0.474
		c-18.229,0-34.949,5.838-47.48,10.925c-2.165,0.879-4.432,1.306-6.681,1.306c-1.998,0-3.974-0.357-5.856-1.014
		c-0.48,0.23-0.972,0.438-1.449,0.675c-1.491,0.738-2.981,1.608-3.792,2.948c-5.484,9.065-12.406,17.18-21,24.637
		c-0.691,1.325-1.317,2.659-1.958,3.991l3.552,0.454c9.95,1.276,19.484,2.499,29.025,3.668c1.623,0.195,3.024,0.055,4.012-1.409
		c4.736-6.995,11.819-12.13,21.656-15.696c10.513-3.811,22.946-5.859,34.136-5.859c4.136,0,27.298,1.446,26.259,8.597
		c-0.219,1.488-1.264,2.405-2.757,2.519c-2.068,0.157-4.321-0.281-6.418-0.281c-18.534,0-37.439,6.06-54.162,13.722
		c10,1.374,19.794,1.851,29.307,2.317c3.976,0.194,7.938,0.388,11.9,0.642c0.742,0.049,1.334,0.639,1.383,1.38
		c0.049,0.743-0.46,1.406-1.189,1.551c-3.514,0.7-7.555,1.449-11.861,2.08c18.775,0,37.159,0,55.845,0
		C489.511,685.321,489.5,685.287,489.503,685.25z M763.892,683.997c-13.225,0.755-26.725,1.091-40.067,1.237
		c-1.292-3.594-5.524-7.356-9.391-9.178c-37.701-17.758-73.178-40.23-105.343-66.726c-26.653-21.956-51.682-47.075-83.355-60.833
		c-29.507-12.817-63.64-14.646-94.347-5.055c-5.608,1.751-11.397,3.897-17.198,2.968c-4.346-0.696-8.279-3.078-12.62-3.81
		c-9.85-1.662-20.088,7.13-19.933,17.118c-5.517-4.762-13.016-7.153-20.271-6.464c-2.43-10.287,0.927-21.743,8.524-29.093
		c6.224-6.021,14.636-9.113,22.784-12.044c49.695-17.877,103.078-35.984,154.262-22.975c32.125,8.165,59.997,27.937,85.496,49.115
		c59.104,49.089,112.184,109.254,183.927,136.75c-21.002,2.749-42.004,5.498-63.005,8.247
		C756.866,683.528,760.378,683.769,763.892,683.997z M505.217,512.853c-0.804-2.93-2.925-3.521-4.349-3.92
		c-10.829-3.238-21.846-4.213-32.37-4.213c-6.888,0-13.565,0.418-19.84,0.892c-10.382,0.79-21.453,2.12-32.077,6.483
		c-3.395,1.394-7.704,3.492-10.915,7.397c-2.978,3.619-3.782,7.406-2.206,10.385c1.044,1.976,2.397,2.598,3.735,2.598
		c1.485,0,2.952-0.767,3.962-1.293c0.539-0.281,1.066-0.561,1.569-0.738c10.171-3.578,20.883-5.948,31.242-8.236
		c2.29-0.506,4.581-1.012,6.868-1.533c17.862-4.053,36.548-5.06,53.034-5.951c0.447-0.023,0.861-0.249,1.122-0.613
		C505.253,513.75,505.337,513.287,505.217,512.853z M692.172,624.851c-0.176-0.191-0.347-0.396-0.521-0.602
		c-0.445-0.535-0.95-1.14-1.608-1.626c-12.203-9.055-23.464-19.633-34.354-29.859c-4.354-4.09-8.706-8.178-13.128-12.185
		c-19.49-17.666-38.042-31.673-56.713-42.816c-8.054-4.805-16.749-9.595-26.714-10.781c-0.594-0.071-1.327-0.159-2.104-0.159
		c-2.121,0-4.574,0.655-5.446,4.093c-1.375,5.412,3.024,7.264,4.471,7.871c13.776,5.78,25.354,15.167,33.901,22.697
		c23.453,20.666,45.071,37.227,66.09,50.63c1.357,0.865,2.709,1.742,4.061,2.621c8.282,5.378,16.845,10.938,26.887,13.625
		c0.72,0.191,1.477,0.393,2.223,0.393c1.146,0,2.264-0.477,3.176-2.204C692.69,625.994,692.6,625.314,692.172,624.851z
		 M952.274,450.285c22.286-12.581,49.007-26.191,78.21-31.754c7.981-1.522,15.277-2.293,22.013-2.293
		c16.309,0,29.315,4.527,40.666,13.885c7.971,6.572,13.159,12.323,16.823,18.65c6.087,10.51,12.357,21.334,14.265,33.947
		c-0.722-0.975-1.423-1.953-2.113-2.919c-1.497-2.092-3.043-4.252-4.735-6.275c-9.81-11.719-22.693-18.774-39.388-21.563
		c-5.042-0.843-9.985-1.224-14.842-1.224c-20.548,0-39.478,6.841-57.09,14.549c-33.973,14.863-64.245,34.621-99.246,59.719
		c-15.028,10.779-29.586,17.571-44.504,20.765c-5.341,1.146-10.759,1.721-16.292,1.721c-10.541,0-21.499-2.086-33.138-6.281
		c-23.265-8.377-43.199-22.248-63.47-36.03c-19.593-13.32-42.352-20.911-66.122-20.911c-10.568,0-21.504,1.431-32.505,4.252
		c-9.702,2.492-17.53,6.975-23.275,13.323c-1.52,1.676-2.748,3.397-3.746,5.148c-6.811-5.283-14.344-10.263-22.467-14.811
		c1.584-0.886,3.045-2.023,4.323-3.394c8.2-8.803,17.28-18.33,27.634-24.587c20.173-12.191,45.29-21.303,69.117-21.303
		c2.335,0,4.566,0.124,6.822,0.378c36.195,4.079,61.558,29.445,93.616,43.281c32.467,14.012,65.433,11.197,96.409-5.155
		C917.376,471.822,934.42,460.363,952.274,450.285z M909.42,494.773c-0.158-0.419-0.498-0.746-0.924-0.885
		c-0.66-0.218-1.268-0.309-1.83-0.309c-1.824,0-3.168,0.961-4.216,1.706c-0.351,0.252-0.697,0.5-1.06,0.706
		c-1.504,0.845-2.978,1.75-4.451,2.656c-2.196,1.351-4.466,2.745-6.775,3.885c-13.693,6.74-28.449,9.376-43.628,11.69
		c-3.642,0.556-7.146,0.835-10.525,0.835c-9.93,0-18.775-2.41-26.821-7.275c-1.104-0.668-2.492-1.151-4.241-1.481
		c-0.54-0.103-1.063-0.153-1.563-0.153c-1.675,0-3.087,0.569-4.004,1.643c-1.163,1.36-1.381,3.283-0.618,5.418
		c0.647,1.799,1.889,3.651,3.499,5.207c8.804,8.513,20.069,10.57,28.899,11.412c2.141,0.202,4.26,0.298,6.361,0.298
		c15.945,0,30.685-5.517,43.242-11.105c9.455-4.212,21.245-10.631,28.543-22.972C909.537,495.661,909.579,495.193,909.42,494.773z"
		/>
	<path fill="#EAC057" d="M585.505,447.143c-8.757-24.306-27.6-38.17-51.749-38.168c-0.312,0-0.628,0.002-0.942,0.007
		c-12.146,0.184-23.596,2.752-34.918,7.878c-6.704,2.619-12.676,5.702-17.845,8.608c-16.454,9.245-30.964,21.787-44.361,38.342
		c-2.947,3.641-4.262,8.192-3.891,12.657c-5.035,1.299-10.102,2.725-15.194,4.287c-4.945,1.517-9.685,3.153-14.306,4.863
		c22.722-24.842,39.341-46.341,52.839-68.251c0.367-0.599,0.266-1.374-0.244-1.854c-0.283-0.269-0.649-0.406-1.017-0.406
		c-0.295,0-0.592,0.089-0.848,0.268c-26.9,18.757-48.605,43.525-69.594,67.478c-6.039,6.891-12.269,13.912-18.591,20.846
		c-2.316,1.438-4.588,2.917-6.812,4.441c-0.131-0.271-0.262-0.54-0.389-0.801c-1.021-2.599-2.328-5.057-3.866-7.377
		c-1.885-3.136-3.786-5.369-6.865-7.908c-0.471-0.415-0.956-0.814-1.449-1.21c16.297-11.621,29.862-25.575,43.019-39.161
		c3.03-3.129,6.043-6.275,9.056-9.422c13.629-14.234,27.641-28.809,42.932-41.209c14.847-11.046,31.309-20.528,50.331-26.332
		c11.636-3.553,22.111-5.324,31.837-5.324c8.373,0.001,16.192,1.314,23.707,3.933c20.731,7.229,37.162,21.809,48.838,43.331
		c3.254,6.002,6.388,12.124,9.473,18.22c1.332,4.337,2.553,8.913,3.646,13.82c0.432,1.938,1.005,3.633,1.668,5.148
		c-5.533,3.958-10.609,8.418-15.252,13.306c-0.159-0.323-0.321-0.651-0.479-0.973c-2.52-5.122-4.958-10.063-7.419-14.978
		C586.391,449.846,585.989,448.485,585.505,447.143z M649.543,369.672c1.378-0.317,2.818-0.479,4.28-0.479
		c4.884,0,9.721,1.774,14.518,2.538c5.6,0.892,11.265,1.347,16.933,1.455c1.994,0.038,3.989,0.029,5.982-0.016
		c33.813-0.773,89.227-21.848,112.526,14.143c0.297,0.458,2.194,4.958,2.253,4.961c0.045,0.003,0.089,0.002,0.133,0.007
		c-0.601-4.629-0.942-9.508-0.802-14.556c-0.403-12.494,3.097-24.543,10.593-35.917c1.566-2.378,1.125-2.728-0.736-4.197
		c-13.725-10.857-30.551-16.819-52.953-18.757c-22.214-1.926-44.933,2.585-66.312,7.307c-19.16,4.232-38.973,8.612-59.342,8.687
		c-3.952,0.015-7.904,0.01-11.856,0.007c-1.067-0.001-2.134-0.001-3.202-0.001c11.22,12.541,19.482,23.181,25.415,35.657
		C647.804,370.18,648.651,369.878,649.543,369.672z M327.069,367.308c-19.263,0-40.125,7.883-52.899,22.75
		c-1.324,1.542-7.872,8.459-9.96,16.842c5.964,1.029,11.819,1.919,17.392,2.718c2.22,0.318,4.164,0.82,5.965,1.309
		c2.627,0.712,4.973,2.025,6.954,3.738c0.78,0.075,1.563,0.124,2.345,0.18c19.338-10.827,38.176-23.869,57.22-39.577
		c-7.772-5.193-17.007-7.96-26.819-7.96H327.069z M472.961,585.691l-0.09-1.739c-0.035-0.677-0.522-1.247-1.188-1.38
		c-9.713-1.958-19.479-2.94-29.384-2.939c-16.04,0-32.438,2.575-49.525,7.747c-0.143-1.067-0.132-2.187-0.12-3.35
		c0.011-1.001,0.016-2.019-0.069-3.049c3.588-0.65,6.722-1.98,9.499-3.545c2.455-0.392,4.869-1.292,7.071-2.764
		c1.413-0.946,2.634-2.068,3.68-3.304c22.413-10.885,42.001-16.058,61.135-16.059c0.43,0,0.865,0.033,1.296,0.038
		c18.411,0.569,36.605,6.138,55.548,17.089c13.06,7.55,24.317,17.843,35.203,27.794c2.074,1.898,4.148,3.795,6.237,5.676
		c24.026,21.63,52.461,46.126,85.908,63.063c4.035,2.042,8.2,3.889,12.271,5.679c-16.757,0.622-33.499,0.997-49.233,1.325
		c-8.109,0.168-16.514,0.252-24.98,0.252c-14.218,0-28.898-0.229-44.442-0.698c-1.071-3.011-2.955-5.738-5.538-7.836
		c-0.746-0.606-1.418-1.142-2.099-1.661c-3.602-2.743-7.233-5.433-10.864-8.121c-0.062-0.046-0.125-0.093-0.187-0.139
		c-10.185-11.518-21.611-22.381-35.707-30.432c-15.691-8.962-31.572-14.273-48.553-16.234c-0.367-0.042-0.724-0.055-1.09-0.093
		c-5.637-0.83-11.351-1.266-17.147-1.266c-3.727,0-7.549,0.171-11.36,0.508c-12.245,1.083-23.511,3.326-34.056,6.774
		c1.382-3.381,2.714-6.706,3.908-10.092c0.283-0.804,0.628-0.888,1.548-1.117c0.386-0.095,0.767-0.194,1.124-0.336
		c18.375-7.319,35.548-12.034,52.501-14.421c6.094-0.859,12.187-1.707,18.283-2.554l9.144-1.273
		C472.447,587.129,473,586.461,472.961,585.691z M510.803,611.564c13.19,11.377,29.174,24.433,47.711,34.977
		c2.78,1.582,5.505,3.263,8.23,4.944c6.704,4.131,13.637,8.406,21.349,11.129c0.288,0.101,0.592,0.272,0.904,0.443
		c0.631,0.341,1.65,0.891,2.696,0.891c0.782,0,1.578-0.307,2.235-1.244c1.944-2.771-0.761-4.672-1.779-5.389
		c-0.249-0.174-0.489-0.338-0.677-0.503c-4.19-3.691-8.431-7.325-12.672-10.961c-3.979-3.408-7.957-6.818-11.894-10.275
		c-9.581-8.412-20.847-18.045-33.318-25.928c-6.295-3.981-12.526-7.727-19.522-9.856c-0.095-0.029-0.194-0.049-0.294-0.058
		c-0.194-0.02-0.395-0.032-0.602-0.032c-1.556,0-3.399,0.662-4.391,3.278C507.868,605.377,507.275,608.521,510.803,611.564z
		 M1119.252,547.136c0.017-2.598,0.081-5.152,0.143-7.649c0.223-8.869,0.432-17.247-1.462-25.408
		c-3.507-15.089-10.475-26.229-21.301-34.057c-9.94-7.186-20.474-9.475-30.687-9.475c-6.8,0-13.457,1.015-19.703,2.275
		c-26.2,5.297-49.891,18.58-70.793,30.302c-19.14,10.729-37.333,23.602-54.929,36.053c-3.168,2.242-6.335,4.484-9.509,6.714
		c-18.783,13.2-37.11,20.397-56.032,21.997c-2.692,0.23-5.395,0.346-8.112,0.346c-16.293,0-33.104-4.143-51.124-12.545
		c-18.73-8.734-36.094-21.113-50.442-31.587c-15.701-10.437-30.26-16.155-45.599-17.828c-4.31-0.469-8.512-0.708-12.488-0.708
		c-12.95,0-24.297,2.46-34.695,7.522c-3.507,1.705-7.003,3.591-8.815,5.811c-0.613,0.752-1.241,1.416-1.872,2.04
		c8.445,6.528,16.364,13.833,24.017,20.935l1.442,1.357c0.526,0.516,0.769,0.752,1.02,0.752c0.214,0,0.435-0.171,0.844-0.486
		c12.814-9.846,27.668-12.002,40.588-12.002c2.81,0,5.525,0.101,8.111,0.248c5.486,0.31,10.012,2.063,13.449,5.207
		c0.291,0.266,0.464,0.639,0.48,1.033s-0.124,0.778-0.392,1.067c-1.417,1.53-2.849,2.285-4.508,2.375
		c-13.828,0.769-26.716,5.924-39.18,10.912c-1.989,0.795-3.979,1.591-5.974,2.372c-0.662,0.257-1.034,0.463-1.237,0.599
		c0.256,0.304,0.73,0.738,1.101,1.076l2.375,2.175c6.863,6.287,13.936,12.73,21.23,18.81c1.94-2.332,4.515-4.313,7.75-5.905
		c10.54-5.185,21.644-7.813,33.003-7.813c11.67,0,23.887,2.801,36.312,8.326c6.742,2.997,13.444,6.128,20.104,9.298
		c8.592,3.654,17.243,7.701,26.325,12.016c12.706,6.035,25.261,9.051,37.861,9.051c11.372,0,22.78-2.456,34.371-7.364
		c15.889-6.734,29.789-17.094,43.233-27.114l2.511-1.872c38.14-28.375,74.09-41.849,112.159-41.849
		c3.986,0,7.991,0.148,12.029,0.441c11.9,0.865,22.842,4.102,33.455,9.899c5.185,2.829,9.254,6.928,13.561,11.268
		C1118.33,546.207,1118.788,546.67,1119.252,547.136z M1045.048,608.322c-7.478-6.209-17.117-6.825-26.358-5.184
		c-15.207,2.702-29.118,10.252-41.394,16.914c-10.866,5.896-21.287,12.948-30.809,20.827c-7.811,6.462-15.767,12.166-23.915,17.136
		c16.192-2.158,33.347-5.307,52.205-9.577c24.863-5.632,49.267-12.428,73.016-20.253c1.328-0.437,1.316-8.516,1.286-9.927
		C1048.998,614.597,1047.971,610.749,1045.048,608.322z"/>
	<path fill="#7ABEDD" d="M335.286,839.998c-0.188,0.587,0.007,1.229,0.49,1.611c11.716,9.292,25.705,19.969,41.769,29.776
		c-33.954-0.012-89.765-25.217-113.906-70.414c42.215,15.291,80.458,24.826,119.597,29.799c-15.72,6.601-31.404,7.414-46.618,8.201
		C336.005,839.002,335.473,839.41,335.286,839.998z M614.713,977.385l-5.58,0.347c-2.133,0.136-4.265,0.188-6.399,0.24
		c-3.149,0.078-6.406,0.156-9.591,0.529c-2.748,0.324-5.499,0.457-8.243,0.457c-6.423,0-12.808-0.726-19.045-1.438
		c-2.225-0.252-4.448-0.506-6.672-0.729c-1.395-0.137-2.557-0.521-3.526-1.089c-25.327-1.266-50.594-3.687-75.718-7.222
		c-0.522,0.026-1.033,0.089-1.56,0.101c-1.546,0.034-3.093,0.05-4.638,0.05c-20.293,0-40.415-2.809-59.361-5.731
		c-29.223-4.51-57.667-11.192-84.538-19.865c-2.268-0.732-4.513-1.611-6.682-2.465c-2.774-1.088-5.618-2.201-8.576-3.035
		c8.473,14.58,20.305,26.142,31.77,37.349c14.575,14.247,30.586,25.85,47.584,34.488c35.937,18.265,75.185,24.1,112.245,27.681
		c15.829,1.533,33.771,3.269,51.375,3.338c6.733,0.026,13.466,0.078,20.199,0.13c9.381,0.072,18.86,0.145,28.389,0.145
		c22.259,0,44.796-0.4,67.054-2.15c20.104-1.579,41.509-3.428,62.758-7.113c28.001-4.86,48.67-11.158,67.02-20.415
		c27.038-13.642,50.29-31.899,69.109-54.263c4.864-5.777,9.355-12.025,13.664-19.017c-31.699,11.56-64.826,19.917-101.205,25.532
		c-17.211,2.656-36.831,5.389-56.705,5.389c-3.421,0-6.848-0.081-10.274-0.257c-1.148-0.059-2.319-0.14-3.51-0.256
		c-26.233,3.921-52.61,6.467-79.031,7.718C628.234,976.546,621.386,976.976,614.713,977.385z M1130.322,621.364
		c-115.008,49.118-241.641,70.727-366.43,62.634c-13.225,0.755-26.725,1.091-40.067,1.237c0.763,2.125,0.5,4.191-1.482,5.761
		c-3.958,3.133-12.002,3.04-16.795,3.782c-19.519,3.024-40.265,4.253-59.556,4.552c-20.407,0.316-40.774-0.689-61.168-0.787
		c-19.077-0.093-37.265-5.193-56.218-6.278c-12.819-0.734-26.126-1.1-38.137-5.478c-0.6-0.218-0.975-0.797-0.959-1.429
		c-18.686,0-37.07,0-55.845,0c-5.036,0.738-10.44,1.313-15.865,1.432c-3.02,0.063-6.039,0.093-9.055,0.093
		c-22.735,0-45.384-1.708-68.368-3.773c-3.374,2.381-7.432,3.716-11.874,3.716c-1.729,0-3.273-0.196-4.464-0.373
		c-50.506-7.52-101.085-14.918-150.342-28.744c-38.877-10.912-70.352-21.818-99.006-34.304c-8.856,16.528-9.196,33.634-0.994,52.251
		c0.855,1.941,2.227,2.812,4.62,3.827c17.901,7.605,37.531,14.357,60.016,20.64c30.279,8.464,60.889,15.494,90.982,20.892
		c9.898,1.776,19.931,3.72,29.635,5.603c14.188,2.748,28.859,5.592,43.349,7.955c21.091,3.44,43.398,6.587,68.195,9.624
		c21.427,2.627,44.254,5.219,67.086,5.528c3.584,0.049,4.012,0.281,6.544,3.506c0.35,0.445,0.414,1.053,0.166,1.562
		c-0.255,0.524-0.819,0.833-1.398,0.833c-1.146,0-2.287-0.03-3.432-0.034c16.778,1.689,33.084,1.747,49.567,1.466
		c-0.001-0.024-0.014-0.045-0.015-0.069l-0.071-1.776c-0.03-0.778,0.545-1.446,1.318-1.53c1.551-0.171,3.103-0.396,4.653-0.625
		c3.141-0.461,6.376-0.927,9.617-0.927c0.276,0,0.552,0.003,0.827,0.01c4.434,0.126,8.976,0.189,13.64,0.189
		c14.399,0,29.966-0.602,47.19-1.812c8.568-0.602,17.193-0.745,25.702-0.745c3.911,0,7.797,0.03,11.641,0.059
		c4.319,0.035,8.642,0.058,12.957,0.061c12.177,0.009,24.447,0.59,36.351,1.18c11.706,0.579,23.735,1.174,35.701,1.174
		c2.851,0,5.697-0.033,8.535-0.109c0.226-0.006,0.451-0.009,0.676-0.009c2.846-0.001,5.668,0.505,8.407,0.987
		c1.332,0.234,2.664,0.469,3.995,0.645c0.775,0.104,1.336,0.793,1.283,1.574l-0.076,1.085c16.786-0.072,33.571-0.35,50.356-1.352
		c-1.619-0.109-3.208-0.207-4.874-0.334c-0.511-0.04-0.963-0.341-1.201-0.793c-2.477-4.742,33.156-6.165,36.825-6.482
		c15.297-1.32,30.574-2.872,45.824-4.653c30.501-3.563,60.894-8.044,91.124-13.436c59.621-10.633,118.614-24.804,176.552-42.438
		c5.288-1.609,10.744-3.344,14.876-7.017c1.077-0.957,2.031-2.015,2.878-3.153c3.315-4.446,5.018-10.105,6.138-15.619
		C1132.509,648.069,1132.668,634.495,1130.322,621.364z M947.723,839.445c0.181-0.184,0.359-0.37,0.539-0.533
		c4.56-4.166,8.689-8.32,12.444-12.495c6.525-7.983,12.386-16.524,17.974-25.461c2.328-4.474,4.292-9.038,5.919-13.723
		c-11.95,2.928-23.777,5.553-35.537,7.894c3.137,14.324,1.486,28.056-0.668,42.025c-0.042,0.269-0.132,0.525-0.269,0.76
		c-0.621,1.058-0.673,1.453-0.547,1.679C947.63,839.542,947.679,839.491,947.723,839.445z"/>
	<path fill="#4D0E02" d="M909.42,494.773c0.159,0.419,0.117,0.888-0.111,1.276c-7.299,12.341-19.088,18.76-28.543,22.972
		c-12.556,5.589-27.297,11.105-43.242,11.105c-2.102,0-4.221-0.095-6.361-0.298c-8.83-0.842-20.095-2.899-28.899-11.412
		c-1.61-1.556-2.852-3.408-3.499-5.207c-0.764-2.135-0.545-4.059,0.618-5.418c0.917-1.074,2.329-1.643,4.004-1.643
		c0.5,0,1.023,0.051,1.563,0.153c1.749,0.33,3.137,0.813,4.241,1.481c8.046,4.865,16.891,7.275,26.821,7.275
		c3.379,0,6.883-0.279,10.525-0.835c15.179-2.314,29.935-4.95,43.628-11.69c2.308-1.14,4.579-2.534,6.775-3.885
		c1.472-0.905,2.946-1.811,4.451-2.656c0.363-0.205,0.709-0.454,1.06-0.706c1.048-0.745,2.392-1.706,4.216-1.706
		c0.563,0,1.171,0.091,1.83,0.309C908.922,494.027,909.262,494.354,909.42,494.773z M244.105,609.175
		c0.659,0.898,1.833,2.498,3.702,2.498c0.704,0,1.508-0.228,2.419-0.806c2.149-1.371,4.147-3.94,1.462-8.412
		c-1.928-3.211-3.821-7.024-3.233-10.952c0.01-0.075,0.016-0.148,0.016-0.223c-0.009-7.678,2.171-11.49,7.29-12.749
		c1.093-0.269,2.036-0.435,2.889-0.435c2.883,0,4.748,1.89,7.982,8.04c1.357,2.58,2.828,3.963,4.63,4.351
		c0.329,0.069,0.656,0.101,0.981,0.101c2.104,0,4.085-1.331,5.461-2.407l0.644-0.506c2.447-1.918,4.76-3.732,7.559-4.837
		c1.322-0.522,2.465-0.785,3.372-0.785c0.695,0,1.251,0.155,1.643,0.464c0.84,0.665,1.12,2.268,0.788,4.507
		c-1.218,8.247-2.862,17.128-5.026,27.158l-0.119,0.529c-0.391,1.71-0.875,3.842,1.297,5.511c0.833,0.642,1.619,0.885,2.339,0.885
		c1.494,0,2.706-1.041,3.473-1.698l0.509-0.428c8.955-7.134,14.512-16.208,16.989-27.751c2.308-10.75-1.17-20.927-8.862-25.925
		c-4.133-2.686-8.609-4.032-13.185-4.032c-4.166,0-8.415,1.115-12.566,3.349c-0.893,0.482-1.424,0.725-1.937,0.725
		c-0.524,0-1.031-0.252-1.887-0.759c-4.722-2.803-9.355-4.205-13.778-4.205c-4.391,0-8.573,1.381-12.425,4.144
		c-6.102,4.374-9.888,11.328-10.657,19.581c-0.842,9.028,2.126,18.537,7.563,24.224
		C243.671,608.576,243.884,608.874,244.105,609.175z M866.525,439.876c0.703,0.35,2.008,1.004,3.419,1.004
		c1.323,0,2.741-0.573,3.847-2.499c1.083-1.892,3.337-5.823-0.505-8.621c-6.403-4.66-9.007-11.265-10.948-19.749
		c-0.758-3.312,0.045-6.393,2.204-8.45c1.509-1.44,3.492-2.19,5.665-2.19c0.913,0,1.862,0.132,2.821,0.402
		c2.666,0.746,4.937,2.259,7.342,3.859c0.723,0.483,1.446,0.963,2.181,1.426c1.531,0.958,2.892,1.433,4.124,1.433
		c0.476,0,0.933-0.071,1.372-0.212c1.481-0.477,2.651-1.75,3.479-3.778c0.432-1.065,0.891-2.118,1.349-3.173l0.861-1.993
		c0.33-0.778,0.647-1.565,0.963-2.358c1.714-4.276,3.334-8.314,7.115-10.753l0.579-0.373c2.412-1.559,4.226-2.728,5.43-2.727
		c0.152,0,0.295,0.018,0.427,0.057c0.999,0.301,2.125,1.898,3.437,4.883c1.791,4.073,3.722,8.056,5.736,11.834
		c0.686,1.287,2.363,3.228,4.169,3.309c0.051,0.002,0.102,0.004,0.151,0.004c2.352,0,3.616-2.31,3.85-4.664
		c0.132-1.319,0.485-2.676,0.826-3.989c0.599-2.294,1.216-4.666,0.752-7.084l0.007-0.984c0.009-0.671,0.014-1.203-0.017-1.733
		c-0.492-8.369-3.694-15.014-9.017-18.711c-3.121-2.169-6.886-3.269-11.003-3.269c-2.532,0-5.198,0.417-7.93,1.255
		c-8.353,2.563-14.61,8.178-18.598,16.686c-0.826,1.76-1.313,2.496-2.545,2.496c-0.526,0-1.188-0.135-2.07-0.382
		c-1.927-0.538-3.901-0.796-5.866-0.796c-8.098,0-16.041,4.375-19.935,11.499c-3.871,7.084-4.575,14.736-2.038,22.127
		C851.461,423.286,855.202,434.189,866.525,439.876z M740.787,908.438c24.732-9.318,49.502-18.534,74.271-27.751
		c12.811-4.767,25.622-9.535,38.428-14.317l1.305-0.486c17.786-6.639,36.177-13.504,52.723-23.568
		c9.958-6.06,17.475-13.405,22.979-22.457c0.162-0.266,0.346-0.532,0.529-0.798c0.82-1.183,0.984-1.565,0.571-2.32
		c-0.272-0.498-0.499-0.646-1.116-0.646c-0.227,0-0.506,0.02-0.86,0.051c-0.369,0.036-0.733,0.069-1.093,0.069
		c-0.1,0-0.2-0.002-0.299-0.008c-0.36-0.016-0.72-0.024-1.079-0.024c-2.231,0-4.445,0.289-6.772,0.605
		c-2.24,0.304-4.556,0.619-6.925,0.642c-1.065,0.009-2.138,0.014-3.207,0.014c-35.812,0-74.083-5.355-116.84-16.434
		c-0.658-0.171-2.666-0.689-3.098-3.092c-0.075-0.422,0.035-0.853,0.301-1.189c0.266-0.333,0.664-0.535,1.091-0.553
		c34.511-1.556,71.214-5.308,115.507-11.817c9.359-1.375,18.714-2.93,28.1-4.667c19.605-4.403,42.532-8.846,59.543-13.408
		c8.44-2.222,16.945-4.572,25.563-7.107c0.138-0.04,0.278-0.059,0.417-0.059c0.448,0,0.882,0.201,1.167,0.566
		c0.373,0.477,0.419,1.134,0.114,1.658c-3.421,5.89-6.742,11.791-10.044,17.658c-5.909,10.501-11.691,20.718-17.818,30.577
		c-5.269,10.047-12.1,19.646-20.663,29.1c-1.407,1.698-2.802,3.403-4.277,5.064c-13.155,14.811-30.427,25.859-56.002,35.819
		c-24.359,9.486-50.154,15.011-75.1,20.351l-7.458,1.603c-25.95,5.598-47.023,9.899-66.316,13.53
		c-10.064,1.895-20.271,2.829-30.713,3.694c-0.712,0.058-1.478,0.307-2.291,0.567c-1.109,0.353-2.376,0.761-3.79,0.761
		c-1.02,0-2.115-0.211-3.282-0.807c-0.454-0.229-0.758-0.677-0.804-1.183c-0.046-0.509,0.171-1.004,0.576-1.313
		C729.396,912.731,735.186,910.547,740.787,908.438z M947.578,839.592c0.052-0.05,0.101-0.101,0.145-0.147
		c0.181-0.184,0.359-0.37,0.539-0.533c4.56-4.166,8.689-8.32,12.444-12.495c6.525-7.983,12.386-16.524,17.974-25.461
		c2.328-4.474,4.292-9.038,5.919-13.723c-11.95,2.928-23.777,5.553-35.537,7.894c3.137,14.324,1.486,28.056-0.668,42.025
		c-0.042,0.269-0.132,0.525-0.269,0.76C947.504,838.971,947.452,839.365,947.578,839.592z M710.151,753.76
		c-1.331-0.176-2.663-0.411-3.995-0.645c-2.74-0.482-5.561-0.988-8.407-0.987c-0.226,0-0.451,0.003-0.676,0.009
		c-2.838,0.076-5.684,0.109-8.535,0.109c-11.966,0-23.994-0.594-35.701-1.174c-11.904-0.59-24.174-1.172-36.351-1.18
		c-4.315-0.003-8.638-0.026-12.957-0.061c-3.844-0.029-7.73-0.059-11.641-0.059c-8.509,0-17.134,0.142-25.702,0.745
		c-17.224,1.211-32.791,1.812-47.19,1.812c-4.663,0-9.206-0.064-13.64-0.189c-0.276-0.007-0.551-0.01-0.827-0.01
		c-3.241,0-6.476,0.466-9.617,0.927c-1.551,0.229-3.103,0.454-4.653,0.625c-0.772,0.084-1.348,0.752-1.318,1.53l0.071,1.776
		c0.029,0.741,0.602,1.348,1.341,1.417c36.247,3.411,72.883,5.114,109.658,5.114c36.604,0,73.344-1.689,109.96-5.068
		c0.723-0.067,1.292-0.648,1.342-1.374l0.122-1.744C711.487,754.553,710.926,753.864,710.151,753.76z M521.676,263.551
		c0.256,0.179,0.551,0.266,0.846,0.266c0.346,0,0.69-0.121,0.966-0.359c13.334-11.476,21.997-25.408,27.26-43.843
		c3.678-12.885,4.912-23.779,3.882-34.288c-0.324-3.311-1.893-4.695-5.234-4.695c-0.089,0-0.179,0.001-0.271,0.003
		c-8.231,0.263-15.383,3.683-22.298,6.992l-0.752,0.359c-3.312,1.585-5.074,3.518-3.622,8.244
		c7.016,22.862,6.585,44.318-1.321,65.591C520.898,262.455,521.122,263.167,521.676,263.551z M655.516,967.9
		c-5.112-2.297-10.019-2.644-14.765-2.982c-1.354-0.095-2.695-0.191-4.021-0.333c-7.124-0.764-14.254-1.548-21.381-2.329
		l-14.779-1.617c-7.973-0.866-16.014-1.301-24.299-1.301c-5.155,0-10.406,0.169-15.793,0.505c-4.501,0.278-7.364,3.211-7.851,8.048
		c-0.288,2.852,0.175,4.973,1.415,6.489c1.124,1.374,2.854,2.187,5.141,2.413c2.225,0.223,4.448,0.477,6.672,0.729
		c6.237,0.712,12.621,1.438,19.045,1.438c2.744,0,5.495-0.133,8.243-0.457c3.185-0.373,6.442-0.451,9.591-0.529
		c2.133-0.052,4.265-0.104,6.399-0.24l5.58-0.347c8.487-0.521,17.264-1.056,25.843-2.187l1.118-0.145
		c4.413-0.564,9.415-1.203,14.105-4.605c0.428-0.31,0.658-0.824,0.605-1.348C656.328,968.574,655.999,968.117,655.516,967.9z
		 M558.514,646.541c2.78,1.582,5.505,3.263,8.23,4.944c6.704,4.131,13.637,8.406,21.349,11.129c0.288,0.101,0.592,0.272,0.904,0.443
		c0.631,0.341,1.65,0.891,2.696,0.891c0.782,0,1.578-0.307,2.235-1.244c1.944-2.771-0.761-4.672-1.779-5.389
		c-0.249-0.174-0.489-0.338-0.677-0.503c-4.19-3.691-8.431-7.325-12.672-10.961c-3.979-3.408-7.957-6.818-11.894-10.275
		c-9.581-8.412-20.847-18.045-33.318-25.928c-6.295-3.981-12.526-7.727-19.522-9.856c-0.095-0.029-0.194-0.049-0.294-0.058
		c-0.194-0.02-0.395-0.032-0.602-0.032c-1.556,0-3.399,0.662-4.391,3.278c-0.911,2.398-1.504,5.543,2.024,8.586
		C523.993,622.942,539.977,635.997,558.514,646.541z M1149.555,626.745c1.678,20.957-1.373,39.764-9.328,57.496
		c-3.881,8.652-11.24,11.66-13.629,12.637c-2.009,0.825-4.03,1.64-6.065,2.444c0.151,2.837-0.37,5.932-1.854,9.178
		c-15.736,41.836-38.277,82.153-67.005,119.842c-18.345,24.062-38.186,45.193-58.968,62.806
		c-10.183,8.634-21.925,13.897-32.408,18.595c-2.035,0.912-4.066,1.822-6.084,2.758c-16.827,7.803-33.91,14.927-51.12,21.322
		c0.991,4.426,0.276,9.173-2.213,13.211c-4.777,7.753-9.75,14.669-15.195,21.136c-20.373,24.211-45.507,43.957-74.704,58.688
		c-19.989,10.084-42.19,16.886-71.988,22.058c-21.985,3.813-43.871,5.707-64.402,7.32c-24.853,1.954-49.635,2.205-68.447,2.205
		c-9.514,0-19.055-0.073-28.282-0.144l-0.378-0.003c-6.666-0.051-13.331-0.103-19.998-0.129c-18.45-0.073-36.815-1.851-53.014-3.421
		c-38.794-3.749-80.011-9.921-118.587-29.528c-18.611-9.457-36.091-22.116-51.966-37.632c-11.727-11.463-25.018-24.454-34.704-41.12
		c-2.27-3.906-2.92-8.428-2.01-12.666c-29.358-10.948-55.28-22.528-78.976-35.27c-8.21-4.414-14.507-10.433-20.063-15.744
		l-2.037-1.942c-34.76-32.897-64.337-71.846-90.424-119.074c-6.037-10.928-10.721-22.17-15.3-33.157
		c-2.905-6.969-5.91-14.175-9.18-21.018c-1.278-2.674-1.84-5.559-1.721-8.401c-2.749-1.1-5.458-2.217-8.132-3.353
		c-2.76-1.172-10.093-4.284-13.94-13.023c-10.647-24.168-9.854-47.467,2.354-69.244c0.64-1.143,1.312-2.171,2.003-3.118
		c-1.854-4.861-1.837-9.522-1.825-11.819c0.002-0.434,0.011-0.866-0.007-1.289c-1.404-33.893,4.164-67.167,17.023-101.72
		c12.85-34.534,28.88-59.94,50.448-79.954c11.868-11.014,23.948-21.165,41.168-24.352c5.906-1.093,11.952-1.648,17.966-1.648
		c4.732,0,9.484,0.347,14.237,1.026c8.202-37.397,32.263-66.903,71.611-87.685c39.798-21.021,89.418-19.893,130.606-3.644
		c6.802,2.683,12.817,6.755,18.966,10.636c4.022,2.539,6.766,5.768,8.332,9.548c3.193-1.763,6.415-3.495,9.723-5.141
		c0.699-0.348,1.386-0.655,2.083-0.994c-22.562-19.189-36.962-40.76-43.939-65.889c-3.252-11.708-6.189-27.3,0.022-44.103
		c5.802-15.688,19.391-25.055,36.352-25.055c5.952,0,12.072,1.117,18.187,3.317c11.429,4.11,19.101,11.799,25.901,19.471
		c1.485-6.014,3.296-12.438,5.502-19.565c6.058-19.57,30.578-38.986,50.481-39.954c1.286-0.06,2.549-0.09,3.79-0.09
		c24.652,0.001,43.009,12.033,51.691,33.883c2.489,6.265,3.577,13.062,3.424,21.391c-0.002,0.142-0.006,0.283-0.013,0.425
		c-0.824,19.449-7.136,38.242-19.867,59.147c-8.555,14.039-18.155,26.745-28.582,37.876c20.214,3.201,38.393,11.271,54.232,24.118
		c2.617,2.122,5.128,4.286,7.586,6.472c3.271-4.806,8.723-7.79,14.668-7.79c4.998,0,9.995,0.013,14.993-0.006
		c18.446-0.068,37.298-4.231,55.574-8.268c18.762-4.145,38.782-8.192,59.118-8.192c4.265,0,8.491,0.179,12.56,0.532
		c26.023,2.251,45.866,9.409,62.433,22.514c1.69,1.334,3.057,2.732,4.197,4.163c3.519-2.413,7.361-4.462,11.537-6.093
		c4.068-1.59,8.335-2.397,12.681-2.397c6.165,0,11.747,1.608,16.777,3.685c11.936-11.941,26.695-18.204,43.11-18.203
		c9.359,0.001,19.167,2.068,29.151,6.144c13.683,5.585,24.057,14.62,30.924,26.916c6.931,0.768,13.388,2.255,19.586,4.503
		c18.261,6.629,32.221,28.412,30.894,47.947l0.005,1.11c0.009,1.491,0.017,2.98-0.021,4.464c-0.051,2.026-0.34,3.922-0.733,5.756
		c0.937-0.194,1.867-0.405,2.81-0.584c9.202-1.754,17.492-2.608,25.342-2.608c20.326,0,37.325,5.87,51.973,17.946
		c9.679,7.981,16.124,15.215,20.9,23.462c6.582,11.365,14.042,24.247,16.454,40.19c1.18,7.802-2.954,15.369-10.036,18.698
		c1.348,3.599,2.537,7.337,3.458,11.301c2.408,10.366,2.158,20.283,1.918,29.877c-0.06,2.388-0.122,4.832-0.138,7.317
		c-0.043,6.313-3.425,12.051-8.759,15.191c4.62,8.62,7.209,18.645,6.509,29.771c-0.197,3.125-0.879,6.787,1.449,9.255
		c3.566,3.781,6.823,5.287,9.271,10.262C1147.789,616.391,1149.144,621.576,1149.555,626.745z M952.274,450.285
		c-17.854,10.079-34.898,21.538-53.041,31.115c-30.975,16.352-63.941,19.167-96.409,5.155
		c-32.058-13.835-57.421-39.202-93.616-43.281c-2.256-0.254-4.487-0.378-6.822-0.378c-23.827,0-48.944,9.112-69.117,21.303
		c-10.354,6.258-19.435,15.784-27.634,24.587c-1.278,1.371-2.739,2.508-4.323,3.394c8.123,4.548,15.656,9.528,22.467,14.811
		c0.998-1.751,2.226-3.471,3.746-5.148c5.745-6.348,13.574-10.831,23.275-13.323c11.001-2.821,21.937-4.252,32.505-4.252
		c23.77,0,46.529,7.591,66.122,20.911c20.271,13.782,40.205,27.653,63.47,36.03c11.64,4.195,22.598,6.281,33.138,6.281
		c5.533,0,10.951-0.575,16.292-1.721c14.918-3.194,29.476-9.986,44.504-20.765c35.002-25.098,65.273-44.856,99.246-59.719
		c17.612-7.707,36.542-14.549,57.09-14.549c4.857,0,9.801,0.382,14.842,1.224c16.696,2.789,29.579,9.844,39.388,21.563
		c1.692,2.022,3.239,4.183,4.735,6.275c0.69,0.966,1.391,1.944,2.113,2.919c-1.908-12.613-8.178-23.438-14.265-33.947
		c-3.664-6.327-8.852-12.077-16.823-18.65c-11.351-9.358-24.357-13.885-40.666-13.885c-6.736,0-14.032,0.772-22.013,2.293
		C1001.281,424.093,974.56,437.704,952.274,450.285z M1067.083,611.794c0.245,0.813,0.47,1.594,0.674,2.317
		c0.236,0.837,0.467,1.678,0.734,2.491c0.435,1.321,0.859,2.653,1.252,3.994c9.148-3.327,18.196-6.795,27.101-10.437
		c6.715-2.749,13.399-5.72,19.881-8.837c0.122-0.059,0.241-0.097,0.363-0.154c0.429-0.2,0.147-2.732,0.139-3.105
		c-0.245-10.942-0.537-20.665-6.622-30.248c-10.68-16.82-30.44-23.189-49.527-23.189c-37.24,0-71.417,16.227-101.51,36.81
		c-4.445,3.04-8.855,6.318-13.119,9.486c-9.095,6.76-18.501,13.749-28.956,19c-17.063,8.571-33.468,12.856-49.462,12.856
		c-14.233,0-28.138-3.39-41.904-10.168l-3.573-1.759c-8.97-4.417-18.125-8.908-27.346-13.3c-7.761-3.296-15.419-6.237-23.223-8.681
		c-7.86-2.46-15.165-3.707-21.711-3.707c-9.858,0-18.211,2.722-26.129,8.464c0.793,0.645,1.589,1.286,2.381,1.932
		c3.843,3.133,7.818,6.373,11.803,9.439c20.954,16.132,42.774,30.641,65.126,43.398c7.522,3.458,15.611,6.801,24.54,10.139
		c3.473,1.299,6.287,3.627,8.295,6.503c1.448,0.336,2.884,0.525,4.333,0.525c0.714,0,1.431-0.04,2.155-0.12l4.153-0.437
		c4.948-0.512,10.064-1.039,14.969-2.016c11.993-2.393,23.428-6.165,34.478-11.226c1.563-1.772,3.459-3.285,5.714-4.346
		c12.037-5.666,23.5-13.918,34.583-21.898c1.645-1.185,3.318-2.377,4.984-3.568c17.431-13.724,34.246-24.13,51.196-31.664
		c10.353-4.599,21.53-8.682,33.908-8.683c2.851,0,5.763,0.216,8.746,0.693C1048.618,584.402,1066.757,593.929,1067.083,611.794z
		 M1049.079,618.258c-0.081-3.662-1.109-7.51-4.031-9.936c-7.478-6.209-17.117-6.825-26.358-5.184
		c-15.207,2.702-29.118,10.252-41.394,16.914c-10.866,5.896-21.287,12.948-30.809,20.827c-7.811,6.462-15.767,12.166-23.915,17.136
		c16.192-2.158,33.347-5.307,52.205-9.577c24.863-5.632,49.267-12.428,73.016-20.253
		C1049.121,627.748,1049.11,619.669,1049.079,618.258z M1117.875,545.75c0.454,0.457,0.913,0.92,1.377,1.386
		c0.017-2.598,0.081-5.152,0.143-7.649c0.223-8.869,0.432-17.247-1.462-25.408c-3.507-15.089-10.475-26.229-21.301-34.057
		c-9.94-7.186-20.474-9.475-30.687-9.475c-6.8,0-13.457,1.015-19.703,2.275c-26.2,5.297-49.891,18.58-70.793,30.302
		c-19.14,10.729-37.333,23.602-54.929,36.053c-3.168,2.242-6.335,4.484-9.509,6.714c-18.783,13.2-37.11,20.397-56.032,21.997
		c-2.692,0.23-5.395,0.346-8.112,0.346c-16.293,0-33.104-4.143-51.124-12.545c-18.73-8.734-36.094-21.113-50.442-31.587
		c-15.701-10.437-30.26-16.155-45.599-17.828c-4.31-0.469-8.512-0.708-12.488-0.708c-12.95,0-24.297,2.46-34.695,7.522
		c-3.507,1.705-7.003,3.591-8.815,5.811c-0.613,0.752-1.241,1.416-1.872,2.04c8.445,6.528,16.364,13.833,24.017,20.935l1.442,1.357
		c0.526,0.516,0.769,0.752,1.02,0.752c0.214,0,0.435-0.171,0.844-0.486c12.814-9.846,27.668-12.002,40.588-12.002
		c2.81,0,5.525,0.101,8.111,0.248c5.486,0.31,10.012,2.063,13.449,5.207c0.291,0.266,0.464,0.639,0.48,1.033
		s-0.124,0.778-0.392,1.067c-1.417,1.53-2.849,2.285-4.508,2.375c-13.828,0.769-26.716,5.924-39.18,10.912
		c-1.989,0.795-3.979,1.591-5.974,2.372c-0.662,0.257-1.034,0.463-1.237,0.599c0.256,0.304,0.73,0.738,1.101,1.076l2.375,2.175
		c6.863,6.287,13.936,12.73,21.23,18.81c1.94-2.332,4.515-4.313,7.75-5.905c10.54-5.185,21.644-7.813,33.003-7.813
		c11.67,0,23.887,2.801,36.312,8.326c6.742,2.997,13.444,6.128,20.104,9.298c8.592,3.654,17.243,7.701,26.325,12.016
		c12.706,6.035,25.261,9.051,37.861,9.051c11.372,0,22.78-2.456,34.371-7.364c15.889-6.734,29.789-17.094,43.233-27.114l2.511-1.872
		c38.14-28.375,74.09-41.849,112.159-41.849c3.986,0,7.991,0.148,12.029,0.441c11.9,0.865,22.842,4.102,33.455,9.899
		C1109.499,537.312,1113.568,541.411,1117.875,545.75z M585.505,447.143c0.484,1.342,0.885,2.703,1.316,4.056
		c2.461,4.915,4.898,9.857,7.419,14.978c0.158,0.322,0.32,0.65,0.479,0.973c4.642-4.888,9.718-9.348,15.252-13.306
		c-0.662-1.515-1.236-3.21-1.668-5.148c-1.093-4.907-2.314-9.483-3.646-13.82c-3.085-6.096-6.219-12.218-9.473-18.22
		c-11.675-21.522-28.106-36.102-48.838-43.331c-7.516-2.619-15.334-3.932-23.707-3.933c-9.726,0-20.202,1.771-31.837,5.324
		c-19.022,5.804-35.484,15.286-50.331,26.332c-15.291,12.4-29.303,26.975-42.932,41.209c-3.013,3.147-6.026,6.293-9.056,9.422
		c-13.156,13.585-26.722,27.539-43.019,39.161c0.492,0.396,0.978,0.795,1.449,1.21c3.079,2.539,4.981,4.772,6.865,7.908
		c1.538,2.319,2.844,4.777,3.866,7.377c0.127,0.261,0.258,0.53,0.389,0.801c2.224-1.524,4.495-3.003,6.812-4.441
		c6.322-6.934,12.553-13.955,18.591-20.846c20.989-23.952,42.693-48.721,69.594-67.478c0.256-0.179,0.553-0.268,0.848-0.268
		c0.367,0,0.733,0.137,1.017,0.406c0.511,0.48,0.612,1.255,0.244,1.854c-13.499,21.909-30.118,43.409-52.839,68.251
		c4.621-1.71,9.361-3.346,14.306-4.863c5.091-1.562,10.159-2.988,15.194-4.287c-0.371-4.465,0.944-9.015,3.891-12.657
		c13.397-16.555,27.908-29.097,44.361-38.342c5.169-2.905,11.141-5.989,17.845-8.608c11.322-5.126,22.772-7.694,34.918-7.878
		c0.314-0.004,0.63-0.007,0.942-0.007C557.905,408.973,576.748,422.837,585.505,447.143z M570.419,458.14
		c-1.347-2.682-2.697-5.356-4.073-8.029c-7.592-14.745-19.324-21.919-35.849-21.919c-0.172,0-0.341,0-0.513,0.003
		c-9.618,0.087-18.349,2.396-26.049,5.438c-6.078,2.886-12.184,6.695-18.53,11.57c-10.926,8.393-19.122,16.652-25.098,25.266
		c4.778-0.769,9.509-1.407,14.182-1.913c10.633-1.147,20.921-1.729,30.575-1.728c24.052,0,45.775,3.581,65.811,10.85
		c1.374,0.461,2.758,0.95,4.142,1.446C573.554,470.346,572.139,463.848,570.419,458.14z M208.894,589.521
		c-0.794,1.357-2.136,3.655-5.159,3.655c-0.746,0-1.596-0.14-2.565-0.47c-1.203-0.411-2.402-0.607-3.568-0.607
		c-1.819,0-3.552,0.484-5.079,1.404c-1.681,1.545-2.762,3.831-3.223,7.683c-1.467,12.235-0.95,17.629,5.478,32.264
		c1.086,2.472,1.552,5.1,1.471,7.698c5.252,1.409,10.6,2.805,16.086,4.186c21.76,5.472,44.974,9.962,68.997,13.343
		c14.599,2.055,30.578,3.904,48.713,5.634c1.143-2.648,2.935-5.031,5.294-6.896c0.494-0.391,0.959-0.79,1.441-1.185
		c3.902-7.111,8.204-13.971,12.45-20.655c4.148-6.532,8.437-13.287,12.221-20.151c4.837-8.774,10.21-20.559,8.809-33.912
		c-0.237-2.265-0.542-2.997-2.1-3.471c-0.597-0.182-1.193-0.376-1.791-0.57c-2.249-0.733-4.417-1.437-6.581-1.437
		c-1.095,0-2.188,0.18-3.292,0.627c-1.016,0.411-1.977,0.583-2.886,0.583c-2.282,0-4.245-1.081-5.975-2.174
		c-7.119-4.49-10.368-13.469-7.897-21.835c2.061-6.983,4.192-14.204,3.887-21.818c-0.001-0.014-0.001-0.026-0.001-0.038
		c-0.029-1.782-0.255-3.628-0.473-5.412c-0.194-1.594-0.386-3.173-0.456-4.733c-0.105-2.364-0.575-4.602-1.318-6.708
		c-2.135-4.351-3.32-6.41-5.265-8.273c-0.044-0.043-0.091-0.085-0.136-0.129c-1.029-0.964-2.29-1.903-3.999-3.095
		c-1.727-1.072-3.575-1.921-5.501-2.557c-1.604,0.225-3.046,0.285-4.255,0.285c-0.322,0-0.65-0.004-1.124-0.016
		c-0.366-0.012-0.73-0.017-1.093-0.017c-6.573,0-16.592,1.656-27.671,15.981c-2.175,2.81-7.035,9.073-14.88,12.105
		c-1.9,2.83-4.234,4.246-7.058,4.246c-1.38,0-2.875-0.335-4.493-1.003c-5.152-2.129-10.715-3.318-16.096-4.472
		c-2.58-0.552-5.159-1.105-7.714-1.756c-1.504-0.382-3.091-0.563-4.717-0.563c-11.348,0-24.744,8.772-27.349,18.975
		c-2.33,9.124-2.047,16.741,0.891,23.961C213.806,575.3,213.145,582.275,208.894,589.521z M776.604,416.621
		c1.393-10.067,6.16-15.884,10.269-19.119c-0.863-1.271-1.815-2.444-2.858-3.521c-5.054-3.08-10.339-5.983-16.354-7.291
		c-3.463-0.752-6.933-1.189-10.404-1.429c-10.69,0.179-21.86,2.233-32.697,4.246l-0.44,0.081c-3.441,0.636-6.885,1.273-10.337,1.861
		c-8.354,1.423-21.058,3.314-34.865,3.314c-8.277,0-16.253-0.707-23.849-2.048c0.359,1.313,0.736,2.616,1.067,3.943
		c0.023,0.064,0.049,0.127,0.072,0.192c2.595,7.272,6.021,14.765,9.349,22.04c1.073,2.345,2.143,4.686,3.188,7.015l0.2,0.445
		c0.242,0.535,0.477,1.065,0.703,1.603c10.557-2.305,21.158-3.459,31.895-3.459l0.994,0.004c15.484,0.114,29.402,4.482,41.864,9.988
		c5.275,2.14,10.72,4.618,16.45,7.55c5.138,2.632,10.071,5.423,15.263,8.367c-0.307-1.849-0.555-3.696-0.756-5.524
		C774.269,434.968,775.278,426.219,776.604,416.621z M812.065,412.764c-1.219-0.342-10.041-3.683-10.841-2.421
		c-6.667,10.559-5.341,22.918-2.558,40.034c0.514,3.165,0.127,6.327-0.978,9.208c2.554,4.076,6.436,7.088,12.554,9.198
		c11.022,3.804,22.76,7.094,35.343,7.094c5.188,0,10.519-0.559,16.003-1.872c19.777-4.736,36.64-14.785,53.602-25.543
		c26.29-16.677,54.573-33.854,85.853-44.555c4.508-1.542,6.149-3.755,6.267-8.456c0.033-1.299,0.025-2.598,0.016-3.897l-0.009-1.82
		c0-0.046,0.001-0.093,0.006-0.139c1.095-11.704-8.23-26.533-19.188-30.51c-6.468-2.346-13.395-3.648-21.177-3.975
		c-2.841-0.119-4.436-1.198-5.505-3.732c-4.798-11.36-12.806-19.2-24.48-23.964c-7.894-3.223-15.404-4.825-22.435-4.826
		c-13.537-0.001-25.313,5.936-34.724,17.679c-1.68,2.097-3.279,3.105-5.194,3.105c-1.219,0-2.567-0.409-4.145-1.204
		c-5.488-2.762-10.612-5.062-15.823-5.062c-2.047,0-4.109,0.355-6.212,1.177c-12.445,4.86-20.504,14.693-23.955,29.229
		c-2.356,9.927-1.128,21.674,0.849,31.607C826.892,406.95,820.39,415.104,812.065,412.764z M621.559,334.853
		c11.22,12.541,19.482,23.181,25.415,35.657c0.83-0.331,1.676-0.633,2.569-0.839c1.378-0.317,2.818-0.479,4.28-0.479
		c4.884,0,9.721,1.774,14.518,2.538c5.6,0.892,11.265,1.347,16.933,1.455c1.994,0.038,3.989,0.029,5.982-0.016
		c33.813-0.773,89.227-21.848,112.526,14.143c0.297,0.458,2.194,4.958,2.253,4.961c0.045,0.003,0.089,0.002,0.133,0.007
		c-0.601-4.629-0.942-9.508-0.802-14.556c-0.403-12.494,3.097-24.543,10.593-35.917c1.566-2.378,1.125-2.728-0.736-4.197
		c-13.725-10.857-30.551-16.819-52.953-18.757c-22.214-1.926-44.933,2.585-66.312,7.307c-19.16,4.232-38.973,8.612-59.342,8.687
		c-3.952,0.015-7.904,0.01-11.856,0.007C623.693,334.854,622.627,334.853,621.559,334.853z M455.351,301.352
		c0.864,0.715,1.695,1.002,2.565,1.002c0.837,0,1.709-0.265,2.679-0.675c19.1-8.048,39.371-12.112,61.974-12.425
		c2.155-0.029,3.427-0.877,4.893-2.335c11.393-11.314,21.828-24.69,31.014-39.764c11.101-18.228,16.596-34.323,17.287-50.65
		c0.11-5.974-0.56-10.446-2.171-14.502c-5.991-15.079-17.82-22.672-35.173-22.672c-0.967,0-1.951,0.024-2.953,0.071
		c-12.26,0.596-30.552,15.222-34.339,27.456c-4.466,14.429-7.197,25.697-8.853,36.533c-0.499,3.272-1.063,6.535-1.627,9.798
		c-1.656,9.581-3.367,19.486-3.318,29.394c0.003,0.671,0.101,1.47,0.197,2.291c0.32,2.742,0.758,6.497-2.358,6.951
		c-0.258,0.039-0.511,0.057-0.756,0.057c-3.636,0-5.77-4.09-7.348-7.118l-0.213-0.405c-0.445-0.853-0.784-1.762-1.118-2.67
		c-0.137-0.376-0.275-0.752-0.422-1.122c-5.654-14.154-7.974-27.45-7.092-40.644c0.158-2.346-0.532-4.305-2.168-6.167
		c-5.897-6.708-11.419-12.494-19.32-15.335c-3.899-1.403-8.1-2.268-12.173-2.268c-8.278,0-16.03,3.57-19.683,13.446
		c-4.419,11.953-2.262,23.481,0.432,33.18C421.478,264.998,434.576,284.157,455.351,301.352z M218.115,394.685
		c1.885,0.597,3.768,1.227,5.645,1.93c5.06,1.891,10.266,3.5,15.519,4.916c0.882-3.045,2.327-5.278,3.174-6.497
		c7.246-13.525,17.904-24.228,32.564-32.703c9.628-5.566,20.085-9.681,31.015-11.806c9.151-1.779,18.529-2.155,27.81-1.363
		c9.845,0.841,19.554,2.252,28.811,5.594c3.565,1.287,6.629,2.774,8.985,5.376c1.966-1.702,3.929-3.41,5.888-5.122
		c11.118-9.717,22.616-19.767,35.519-27.742c0.733-0.454,0.94-0.784,0.955-0.865c-0.001,0-0.09-0.472-1.501-1.362
		c-5.195-3.279-10.251-6.865-16.002-9.133c-36.53-14.409-80.527-15.797-115.784,2.826
		C245.664,337.247,225.193,362.113,218.115,394.685z M327.266,367.308h-0.197c-19.263,0-40.125,7.883-52.899,22.75
		c-1.324,1.542-7.872,8.459-9.96,16.842c5.964,1.029,11.819,1.919,17.392,2.718c2.22,0.318,4.164,0.82,5.965,1.309
		c2.627,0.712,4.973,2.025,6.954,3.738c0.78,0.075,1.563,0.124,2.345,0.18c19.338-10.827,38.176-23.869,57.22-39.577
		C346.314,370.074,337.079,367.308,327.266,367.308z M77.717,596.614c0.029,0.694,0.026,1.412,0.022,2.132
		c-0.005,0.952,0.005,1.816,0.061,2.611c0.413-0.022,0.818-0.035,1.21-0.035c3.352,0.001,6.683,0.778,10.194,2.38
		c24.739,11.307,51.347,21.177,81.767,30.286c-2-7.203-2.913-14.071-3.437-19.91c-0.765-8.516,1.254-17.506,5.689-25.321
		c2.372-4.175,5.606-7.551,9.384-9.998c2.606-1.935,5.605-3.521,9.104-4.654c-3.878-11.913-4.427-23.226-1.688-34.537
		c3.696-15.257,13.237-26.782,26.864-32.449c6.093-2.533,12.717-3.782,19.238-3.782c8.402,0,16.634,2.073,23.351,6.143
		c2.732,1.656,4.998,2.685,7.029,3.077c8.733-13.215,20.916-22.821,36.356-28.569c4.819-1.791,9.92-2.698,15.161-2.698
		c1.611,0,3.204,0.114,4.786,0.281c1.22-3.945,3.768-7.408,7.328-9.702c21.532-13.875,40.784-32.167,59.427-49.88
		c2.913-2.768,5.827-5.535,8.751-8.292c9.798-9.233,20.151-18.426,31.433-26.839c3.348-2.7,6.744-5.346,10.252-7.853
		c27.34-19.535,54.467-29.098,82.654-29.098c3.063,0,6.133,0.113,9.223,0.338c27.03,1.976,49.47,14.4,68.603,37.977
		c8.929,11.004,15.673,23.978,20.751,40.042c1.203,2.382,2.425,4.781,3.607,7.135l0.305,0.608c1.151,2.293,2.303,4.574,3.453,6.853
		c5.572-2.825,11.124-5.336,16.668-7.501c-1.312-3.773-1.811-7.938-2.317-12.223c-0.855-7.222-2.148-14.34-3.837-21.268
		c-9.844-27.02-26.526-49.822-51-69.666c-17.929-14.541-38.848-21.726-63.514-21.728c-6.65,0-13.567,0.521-20.777,1.562
		c-18.067,2.601-36.341,8.583-55.864,18.294c-27.382,13.616-50.729,32.088-75.818,53.063c-0.58,0.697-1.203,1.363-1.897,1.974
		c-19.15,16.877-35.869,30.102-52.618,41.622c-5.429,3.733-10.849,5.619-16.535,5.794c-1.904,1.031-3.803,2.078-5.72,3.071
		c-6.729,3.484-13.559,6.857-20.778,9.214c-4.303,1.404-12.473,4.298-14.533-1.916c-0.821-2.474,0.31-4.214,2.563-5.286
		c2.105-1.002,4.401-1.606,6.552-2.57c3.366-1.507,6.732-3.028,9.935-4.862c-2.736,1.566-17.99-4.678-21.439-5.53
		c-7.216-1.783-14.449-3.494-21.695-5.146c-10.063-2.294-24.079-2.133-31.511-10.336c-5.987-1.3-11.962-1.972-17.898-1.972
		c-4.942,0-9.856,0.448-14.732,1.351c-12.553,2.323-22.061,10.388-32.313,19.902c-19.456,18.054-34.035,41.289-45.881,73.124
		C81.619,534.127,76.412,565.132,77.717,596.614z M1130.322,621.364c-118.245,50.501-248.782,71.932-376.967,61.889
		c21.002-2.749,42.004-5.499,63.005-8.247c-71.743-27.496-124.822-87.661-183.927-136.75c-25.499-21.178-53.371-40.95-85.496-49.115
		c-51.185-13.009-104.568,5.098-154.262,22.975c-8.148,2.931-16.561,6.023-22.784,12.044c-7.596,7.349-10.954,18.806-8.524,29.093
		c7.255-0.689,14.754,1.702,20.271,6.464c-0.155-9.989,10.083-18.78,19.933-17.118c4.341,0.733,8.273,3.114,12.62,3.81
		c5.801,0.93,11.59-1.216,17.198-2.968c30.707-9.59,64.84-7.761,94.347,5.055c31.673,13.757,56.703,38.876,83.355,60.833
		c32.165,26.496,67.642,48.968,105.343,66.726c6.156,2.899,13.245,10.715,7.91,14.939c-3.958,3.133-12.002,3.04-16.795,3.782
		c-19.519,3.024-40.265,4.253-59.556,4.552c-20.407,0.316-40.774-0.689-61.168-0.787c-19.077-0.093-37.265-5.193-56.218-6.278
		c-12.819-0.734-26.126-1.1-38.137-5.478c-0.635-0.231-1.033-0.862-0.966-1.536c0.065-0.671,0.577-1.215,1.244-1.319
		c13.104-2.055,26.434-0.333,39.587-1.801c-3.021-3.761-6.126-7.516-9.342-11.205c-7.073-5.242-14.312-10.653-21.118-16.408
		c-17.003-14.377-34.847-22.917-54.038-25.838c-2.902-0.301-5.852-0.474-8.798-0.474c-18.229,0-34.949,5.838-47.48,10.925
		c-2.165,0.879-4.432,1.306-6.681,1.306c-1.998,0-3.974-0.357-5.856-1.014c-0.48,0.23-0.972,0.438-1.449,0.675
		c-1.491,0.738-2.981,1.608-3.792,2.948c-5.484,9.065-12.406,17.18-21,24.637c-0.691,1.325-1.317,2.659-1.958,3.991l3.552,0.454
		c9.95,1.276,19.484,2.499,29.025,3.668c1.623,0.195,3.024,0.055,4.012-1.409c4.736-6.995,11.819-12.13,21.656-15.696
		c10.513-3.811,22.946-5.859,34.136-5.859c4.136,0,27.298,1.446,26.259,8.597c-0.219,1.488-1.264,2.405-2.757,2.519
		c-2.068,0.157-4.321-0.281-6.418-0.281c-18.534,0-37.439,6.06-54.162,13.722c10,1.374,19.794,1.851,29.307,2.317
		c3.976,0.194,7.938,0.388,11.9,0.642c0.742,0.049,1.334,0.639,1.383,1.38c0.049,0.743-0.46,1.406-1.189,1.551
		c-7.623,1.519-17.662,3.292-27.726,3.512c-3.02,0.063-6.039,0.093-9.055,0.093c-22.735,0-45.384-1.708-68.368-3.773
		c-3.374,2.381-7.432,3.716-11.874,3.716c-1.729,0-3.273-0.196-4.464-0.373c-50.506-7.52-101.085-14.918-150.342-28.744
		c-38.877-10.912-70.352-21.818-99.006-34.304c-8.856,16.528-9.196,33.634-0.994,52.251c0.855,1.941,2.227,2.812,4.62,3.827
		c17.901,7.605,37.531,14.357,60.016,20.64c30.279,8.464,60.889,15.494,90.982,20.892c9.898,1.776,19.931,3.72,29.635,5.603
		c14.188,2.748,28.859,5.592,43.349,7.955c21.091,3.44,43.398,6.587,68.195,9.624c21.427,2.627,44.254,5.219,67.086,5.528
		c3.584,0.049,4.012,0.281,6.544,3.506c0.35,0.445,0.414,1.053,0.166,1.562c-0.255,0.524-0.819,0.833-1.398,0.833
		c-119.329,0-235.56-18.736-345.627-55.692c3.483,7.29,6.584,14.733,9.597,21.959c4.349,10.437,8.848,21.227,14.403,31.286
		c25.189,45.602,53.675,83.139,87.084,114.758l2.084,1.987c4.976,4.756,10.12,9.676,16.216,12.954
		c25.539,13.732,53.832,26.108,86.499,37.829c26.625,9.558,55.203,17.878,89.936,26.183l2.514,0.602
		c27.848,6.666,56.609,13.542,85.916,13.542c1.255,0,2.511-0.012,3.769-0.038c0.061,0,0.126-0.001,0.194-0.001
		c0.685,0,1.681,0.047,2.434,0.837c0.573,0.602,0.827,1.467,0.754,2.575c-0.045,0.66-0.521,1.212-1.167,1.351
		c-6.121,1.313-12.451,2.673-19.117,2.826c-1.546,0.034-3.093,0.05-4.638,0.05c-20.293,0-40.415-2.809-59.361-5.731
		c-29.223-4.51-57.667-11.192-84.538-19.865c-2.268-0.732-4.513-1.611-6.682-2.465c-2.774-1.088-5.618-2.201-8.576-3.035
		c8.473,14.58,20.305,26.142,31.77,37.349c14.575,14.247,30.586,25.85,47.584,34.488c35.937,18.265,75.185,24.1,112.245,27.681
		c15.829,1.533,33.771,3.269,51.375,3.338c6.733,0.026,13.466,0.078,20.199,0.13c9.381,0.072,18.86,0.145,28.389,0.145
		c22.259,0,44.796-0.4,67.054-2.15c20.104-1.579,41.509-3.428,62.758-7.113c28.001-4.86,48.67-11.158,67.02-20.415
		c27.038-13.642,50.29-31.899,69.109-54.263c4.864-5.777,9.355-12.025,13.664-19.017c-31.699,11.56-64.826,19.917-101.205,25.532
		c-17.211,2.656-36.831,5.389-56.705,5.389c-3.421,0-6.848-0.081-10.274-0.257c-4.931-0.252-10.272-0.848-15.915-3.457
		c-0.496-0.231-0.826-0.714-0.856-1.261c-0.032-0.547,0.242-1.067,0.71-1.351c1.937-1.174,3.66-1.428,5.159-1.428
		c0.605,0,1.172,0.041,1.702,0.08l0.616,0.043c1.805,0.103,3.607,0.15,5.402,0.15c11.605,0,22.977-1.989,34.024-3.926
		c38.004-6.671,74.832-16.81,102.671-24.898c32.188-9.347,64.372-21.441,95.656-35.949c2.119-0.984,4.257-1.941,6.399-2.901
		c9.74-4.365,19.813-8.878,28.076-15.884c19.814-16.793,38.765-36.99,56.329-60.026c27.739-36.391,49.477-75.285,64.609-115.605
		c0.213-0.57,0.91-1.48,0.245-1.97c-0.447-0.33-1.32-0.077-1.776,0.093c-5.609,2.094-11.389,4.156-17.813,6.355
		c-30.481,10.449-64.021,19.185-105.55,27.493c-14.798,2.962-29.969,5.256-44.64,7.475c-4.384,0.662-8.767,1.325-13.145,2.005
		c-10.319,1.605-21.629,3.182-35.594,4.958c-12.038,1.53-24.486,3.116-36.941,4.244c-7.553,0.683-15.244,1.203-22.682,1.704
		c-4.647,0.315-9.293,0.628-13.93,0.984c-6.809,0.519-13.851,0.779-21.325,0.779c-9.82,0-20.386-0.448-32.159-1.349
		c-0.511-0.04-0.963-0.341-1.201-0.793c-2.477-4.742,33.156-6.165,36.825-6.482c15.297-1.32,30.574-2.872,45.824-4.653
		c30.501-3.563,60.894-8.044,91.124-13.436c59.621-10.633,118.614-24.804,176.552-42.438c5.288-1.609,10.744-3.344,14.876-7.017
		c1.077-0.957,2.031-2.015,2.878-3.153c3.315-4.446,5.018-10.105,6.138-15.619C1132.509,648.069,1132.668,634.495,1130.322,621.364z
		 M472.961,585.691c0.039,0.769-0.513,1.438-1.274,1.545l-9.144,1.273c-6.095,0.848-12.189,1.695-18.283,2.554
		c-16.953,2.387-34.126,7.102-52.501,14.421c-0.357,0.142-0.738,0.24-1.124,0.336c-0.92,0.229-1.264,0.312-1.548,1.117
		c-1.194,3.386-2.526,6.711-3.908,10.092c10.545-3.448,21.811-5.691,34.056-6.774c3.811-0.337,7.633-0.508,11.36-0.508
		c5.796,0,11.51,0.435,17.147,1.266c0.366,0.038,0.723,0.051,1.09,0.093c16.981,1.961,32.862,7.273,48.553,16.234
		c14.095,8.051,25.522,18.914,35.707,30.432c0.061,0.046,0.124,0.093,0.187,0.139c3.631,2.687,7.262,5.378,10.864,8.121
		c0.681,0.519,1.353,1.055,2.099,1.661c2.583,2.098,4.466,4.825,5.538,7.836c15.544,0.469,30.224,0.698,44.442,0.698
		c8.466,0,16.872-0.085,24.98-0.252c15.733-0.328,32.476-0.703,49.233-1.325c-4.071-1.79-8.236-3.637-12.271-5.679
		c-33.447-16.937-61.881-41.434-85.908-63.063c-2.089-1.88-4.163-3.778-6.237-5.676c-10.886-9.951-22.143-20.244-35.203-27.794
		c-18.944-10.951-37.137-16.519-55.548-17.089c-0.431-0.005-0.866-0.038-1.296-0.038c-19.134,0.001-38.722,5.174-61.135,16.059
		c-1.046,1.236-2.267,2.358-3.68,3.304c-2.202,1.472-4.615,2.372-7.071,2.764c-2.776,1.565-5.911,2.895-9.499,3.545
		c0.085,1.03,0.08,2.048,0.069,3.049c-0.012,1.163-0.023,2.282,0.12,3.35c17.086-5.172,33.485-7.747,49.525-7.747
		c9.905-0.001,19.671,0.981,29.384,2.939c0.665,0.133,1.153,0.703,1.188,1.38L472.961,585.691z M689.711,819.814
		c0.014,0.622-0.362,1.186-0.942,1.415c-30.939,12.106-63.205,17.16-96.297,21.673c-21.379,2.919-43.216,3.604-64.332,4.264
		c-7.824,0.246-15.828,0.498-23.825,0.862c62.299,13.185,114.256,20.872,162.713,24.106c0.754,0.052,1.349,0.66,1.381,1.415
		s-0.508,1.412-1.255,1.527c-29.125,4.472-59.564,6.686-92.22,6.686c-12.895,0-26.134-0.346-39.775-1.033
		c-39.828-2.008-81.713-7.866-127.915-17.901c1.053,0.822,2.155,1.279,3.293,1.747l0.424,0.177
		c23.814,9.957,49.837,18.893,79.556,27.317c20.676,5.864,41.173,10.683,60.925,14.319c2.141,0.396,4.283,0.804,6.429,1.215
		c10.233,1.953,20.815,3.975,31.488,4.348c0.709,0.026,1.3,0.55,1.412,1.25c0.11,0.703-0.292,1.383-0.959,1.623
		c-7.152,2.595-15.514,5.427-24.237,6.248c-11.334,1.065-22.682,1.386-34.132,1.386c-6.765,0-13.563-0.113-20.417-0.249
		c-13.452-0.266-26.621-0.625-39.837-2.063c-26.699-2.901-49.143-5.546-71.899-9.031c-15.99-2.45-31.977-5.942-47.438-9.321
		l-8.145-1.773c-10.128-2.19-19.894-5.997-29.339-9.679l-2.738-1.067c-21.149-8.21-39.967-19.998-55.931-35.041
		c-12.987-12.242-24.233-26.958-35.391-46.311c-6.231-10.81-10.575-21.3-13.282-32.07c-0.567-2.262-0.823-4.614-0.78-7.192
		c0.062-3.677,0.814-5.861,2.443-7.082c0.994-0.748,2.211-1.013,3.475-1.013c1.397,0,2.853,0.323,4.135,0.674
		c26.711,7.301,51.777,13.541,76.63,19.078c21.78,4.851,39.841,8.548,56.839,11.635c15.45,2.809,29.081,4.99,41.671,6.662
		c7.079,0.943,14.153,1.921,21.227,2.901c10.311,1.432,20.626,2.861,30.96,4.166c23.273,2.936,42.858,5.161,62.801,6.471
		c5.561,0.365,11.166,1.067,16.587,1.747c7.612,0.954,15.569,1.988,23.265,1.988c0.265,0,0.529-0.001,0.794-0.004
		c0.105,0,0.21,0,0.315,0c11.23,0,22.563,0.762,33.532,1.516c7.229,0.498,14.704,1.01,22.055,1.287
		c8.584,0.326,17.26,0.431,25.896,0.431c7.748,0,15.465-0.085,23.059-0.168l4.999-0.052c5.401-0.055,10.912-0.437,16.24-0.807
		c3.11-0.214,6.218-0.428,9.329-0.584c0.248-0.012,0.497-0.019,0.746-0.019c1.765,0,3.558,0.315,5.459,0.956
		C689.295,818.646,689.697,819.193,689.711,819.814z M335.286,839.998c0.187-0.587,0.719-0.995,1.334-1.027
		c15.213-0.787,30.898-1.6,46.618-8.201c-39.14-4.973-77.383-14.507-119.597-29.799c24.14,45.197,79.951,70.402,113.906,70.414
		c-16.064-9.807-30.053-20.484-41.769-29.776C335.294,841.227,335.098,840.585,335.286,839.998z M294.591,473.482
		c0.356,0,0.694-0.029,0.994-0.061c0.017-0.003,0.033-0.006,0.051-0.006c5.115-0.746,9.674-2.98,14.081-5.141l2.11-1.027
		c22.032-10.573,38.581-23.458,50.592-39.386c0.159-0.211,0.392-0.428,0.634-0.662c0.939-0.914,3.139-3.058,1.072-5.438
		c-0.751-0.867-1.575-1.169-2.371-1.169c-1.286,0-2.501,0.789-3.229,1.262c-0.285,0.185-0.558,0.367-0.816,0.498
		c-20.647,10.449-41.627,22.873-62.36,36.927c-3.254,2.207-4.9,5.395-4.892,9.477c0.003,1.128,0.142,2.745,1.316,3.795
		C292.606,473.297,293.66,473.482,294.591,473.482z M691.651,624.249c-0.445-0.535-0.95-1.14-1.608-1.626
		c-12.203-9.055-23.464-19.633-34.354-29.859c-4.354-4.09-8.706-8.178-13.128-12.185c-19.49-17.666-38.042-31.673-56.713-42.816
		c-8.054-4.805-16.749-9.595-26.714-10.781c-0.594-0.071-1.327-0.159-2.104-0.159c-2.121,0-4.574,0.655-5.446,4.093
		c-1.375,5.412,3.024,7.264,4.471,7.871c13.776,5.78,25.354,15.167,33.901,22.697c23.453,20.666,45.071,37.227,66.09,50.63
		c1.357,0.865,2.709,1.742,4.061,2.621c8.282,5.378,16.845,10.938,26.887,13.625c0.72,0.191,1.477,0.393,2.223,0.393
		c1.146,0,2.264-0.477,3.176-2.204c0.295-0.555,0.205-1.235-0.223-1.698C691.995,624.66,691.825,624.455,691.651,624.249z
		 M153.427,487.752c-13.386,18.016-21.599,38.602-24.409,61.177c-1.828,14.672-1.835,27.892-0.023,40.415
		c1.691,11.687,4.893,20.49,10.384,28.537c0.281,0.411,0.742,0.645,1.224,0.645c0.122,0,0.244-0.014,0.366-0.046
		c0.603-0.153,1.046-0.668,1.108-1.287c0.505-5.071-0.285-9.621-1.05-14.021c-0.5-2.887-0.973-5.612-1.072-8.378
		c-0.568-16.263,1.705-33.64,7.154-54.68c10.771-41.578,32.971-68.476,67.871-82.231c1.497-0.593,2.78-1.53,4.199-2.569
		c2.387-1.744,3.327-4.157,2.577-6.625c-0.953-3.136-4.099-3.477-5.793-3.662c-0.723-0.079-1.437-0.116-2.143-0.116
		c-4.466,0-8.575,1.478-12.433,3.011C183.589,455.014,168.349,467.668,153.427,487.752z M119.721,511.308
		c0.036,0.003,0.072,0.003,0.107,0.003c0.606,0,1.156-0.37,1.38-0.943c9.646-24.676,28.125-41.94,44.93-55.577
		c3.531-2.864,7.22-5.655,10.789-8.354c3.33-2.52,6.658-5.036,9.914-7.651c2.424-1.947,3.526-3.926,3.275-5.878
		c-0.263-2.048-1.992-3.801-5.136-5.207c-1.304-0.581-2.533-0.818-3.692-0.818c-2.972,0-5.483,1.561-7.616,2.889l-1.102,0.68
		c-20.676,12.361-36.889,30.609-49.565,55.779c-3.613,7.171-6.674,15.037-4.618,23.932
		C118.53,510.796,119.073,511.259,119.721,511.308z M500.868,508.933c-10.829-3.238-21.846-4.213-32.37-4.213
		c-6.888,0-13.565,0.418-19.84,0.892c-10.382,0.79-21.453,2.12-32.077,6.483c-3.395,1.394-7.704,3.492-10.915,7.397
		c-2.978,3.619-3.782,7.406-2.206,10.385c1.044,1.976,2.397,2.598,3.735,2.598c1.485,0,2.952-0.767,3.962-1.293
		c0.539-0.281,1.066-0.561,1.569-0.738c10.171-3.578,20.883-5.948,31.242-8.236c2.29-0.506,4.581-1.012,6.868-1.533
		c17.862-4.053,36.548-5.06,53.034-5.951c0.447-0.023,0.861-0.249,1.122-0.613c0.262-0.362,0.346-0.824,0.226-1.258
		C504.413,509.923,502.292,509.333,500.868,508.933z"/>
</g>
</svg>
